<?xml version="1.0" encoding="UTF-8"?>
<svg id="Layer_2" data-name="Layer 2" xmlns="http://www.w3.org/2000/svg" viewBox="0 0 196.12 154.54">
  <defs>
    <style>
      .cls-1, .cls-2, .cls-3, .cls-4, .cls-5 {
        stroke-width: 0px;
      }

      .cls-2 {
        fill: #2d5268;
      }

      .cls-3 {
        fill: #5a665c;
      }

      .cls-4 {
        fill: #decebf;
      }

      .cls-5 {
        fill: #bb9852;
      }
    </style>
  </defs>
  <g id="Layer_1-2" data-name="Layer 1">
    <g>
      <path class="cls-1" d="M2.85,99.15v-62.61c0-4.59,3.04-7.68,7.62-7.72,1.9-.01,3.82.03,5.72-.03.44-.01,1.13-.26,1.24-.57.13-.32-.18-.99-.48-1.29-1.3-1.26-2.68-2.44-4.09-3.71-.69.6-1.61,1.42-2.56,2.21-1.16.98-1.87.95-2.84-.15-2.27-2.54-4.5-5.13-6.73-7.72-1.01-1.18-.99-1.81.15-2.82,3.45-3.04,6.93-6.07,10.41-9.08.89-.76,1.77-.72,2.56.18,2.31,2.63,4.62,5.26,6.9,7.91.91,1.05.8,1.81-.2,2.75-.66.6-1.32,1.18-2.09,1.87,1.32,1.39,2.54,2.75,3.86,4.05.19.19.73.18,1.02.06,7.3-3.14,15.34,1.71,16.09,9.48.12,1.18.01,2.37.01,3.7.26.03.63.09,1.01.09,4.04.01,8.06-.01,12.09.01.79,0,1.27-.2,1.73-.89C66.5,16.77,83.24,5.26,104.74,1.39c24.22-4.36,45.98,1.58,64.7,17.61,14,11.98,22.56,27.29,25.55,45.47,3.25,19.76-.47,38.29-11.52,55.06-11.89,18.06-28.55,29.61-49.82,33.52-28.12,5.16-52.24-3.01-71.94-23.78-7.88-8.34-13.29-18.18-16.7-29.12-.32-1.02-.86-1.01-1.65-1.01-12.9.01-25.78.01-38.68.01-.56,0-1.11,0-1.81,0h0ZM95.53,77.37c-.03,11.42,8.88,22.89,22.89,23.19,12.97.28,23.37-9.93,23.69-22.93.31-12.5-9.83-23.14-22.49-23.59-12.85-.47-24.04,9.74-24.09,23.33ZM50.31,53.3c2.11-5.79,4.59-11.17,8.03-16.03C75.83,12.59,99.72,1.66,129.67,5.67c21.47,2.88,38.2,14.19,50.06,32.32,10.03,15.34,13.53,32.3,10.75,50.38-2.76,18.05-11.29,33.05-25.37,44.71-15.65,12.94-33.75,18.34-53.92,16.34-16.22-1.61-30.43-8.06-42.13-19.41-18.53-17.96-25.64-39.92-21.61-65.37.41-2.59-.66-4.11-1.93-6.04-.16.54-.28.86-.35,1.21-2.65,11.52-2.79,23.08-.04,34.6,9.04,37.98,44.44,62.75,83.02,58.01,15.21-1.87,28.79-7.75,40.22-17.99,20.27-18.18,28.75-40.98,25.3-67.96-1.99-15.53-8.56-29.19-19.36-40.54C155.82,6.52,133.07-1.28,106.61,2.66c-17.91,2.68-32.82,11.32-44.81,24.89-5.7,6.46-10.12,13.75-13.32,21.75-.29.73-.35,1.29.23,1.9.54.57.97,1.26,1.59,2.11h0ZM16.44,53.01v6.3c0,.13-.03.35.04.38,1.24.73.67,1.94.7,2.92.07,2.88.03,5.76.03,8.63v1.96h7.28v-1.52c0-3.54.01-7.09-.01-10.63,0-.78.1-1.24,1.05-1.23,4.04.03,8.06.03,12.09,0,.85,0,1.05.35,1.04,1.11-.03,2.62,0,5.22,0,7.84v4.39h2.59c.98-5.34,1.93-10.51,2.82-15.68.09-.48-.04-1.17-.35-1.54-3.41-4.02-6.87-7.97-10.3-11.98-.57-.66-1.07-.34-1.64-.13-6.67,2.33-13.82-1.74-15.06-8.67-.28-1.56-.04-3.23-.04-5h-5.45c-4.27,0-6.77,2.49-6.77,6.76v54.17h38.05c-.41-5.54-.8-10.98-1.21-16.54h-1.32c-10.59,0-21.18.01-31.76-.03-.7,0-1.4-.35-2.11-.54.37-1.26,1.4-.64,2.12-.67,1.92-.09,3.85-.03,5.78-.03.03-.45.03-.67.04-.89.44-4.39-.7-8.8.66-13.21.57-1.84.1-4.02.1-6.13-.95-.06-1.77-.1-2.65-.15v-7.28h13.95c-.03.56-.06,1.05-.1,1.73h-12.62v4.62h10.28c.06.16.12.31.18.47-.34.18-.66.51-.99.51-2.09.07-4.17.04-6.42.06h0ZM107.97,121.59v.26c.34.09.67.19.99.28,6.19,1.36,12.39,1.45,18.6.23,24.74-4.83,41.05-28.87,36.37-53.54-4.69-24.73-28.49-41.14-53.2-36.71-29.25,5.24-45.95,36.62-33.94,63.72.82,1.86,2.33,2.41,4.11,3.32-.31-.56-.45-.83-.58-1.1-4.81-9.08-6.38-18.73-4.47-28.81,4.34-23.03,25.8-38.4,49.01-35.29,18.78,2.53,33.96,17.3,37.07,36.08,3.29,19.82-7.03,39.08-25.37,47.25-7.44,3.32-15.25,4.42-23.35,3.39-.37-.04-.78.15-1.14.29-.61.23-1.18.66-1.81.75-.76.07-1.52-.09-2.27-.13h0ZM53.47,74.92c-.16.03-.34.06-.5.07.16,3.2.12,6.43.5,9.62,1.71,14.62,7.44,27.49,17.8,37.99,17.4,17.67,38.53,24.09,62.68,18.59,28.34-6.45,48.54-30.59,50.48-59.52.91-13.61-1.99-26.45-9.2-38.1-12.04-19.45-29.61-30.13-52.4-31.91-9.84-.78-19.46.79-28.58,4.65-19.8,8.35-32.73,22.9-38.84,43.51-.31,1.04-.22,1.89.56,2.72.12-.37.26-.69.34-1.04,6.93-27.17,30.4-46.8,58.32-48.51,16.99-1.05,32.2,3.88,45.35,14.73,23.03,19.01,29.85,51.62,16.48,78.37-12.11,24.2-37.77,38.18-64.71,35.24-12.14-1.33-23.09-5.67-32.61-13.31-15.72-12.61-23.98-29.04-24.74-49.22-.04-1.32-.6-2.6-.92-3.89h0ZM72.17,93.81c-10.56-31.22,10.41-61.17,39.34-65.38,27.57-4.01,53.26,15.27,56.38,43.49,1.55,14.05-2.25,26.79-11.61,37.44-13.16,14.97-29.88,19.83-49.34,16.03v1.78c8.09,1.92,16.13,1.92,24.12-.07,27.93-6.96,44.6-35.1,37.35-62.94-7.63-29.34-39.76-45.73-68.03-34.7-23.97,9.34-37.34,34.67-31.51,59.62.47,2.02,1.43,3.54,3.32,4.74h0ZM53.86,59.31c.18.01.35.03.51.03.12-.38.23-.75.35-1.13,2.82-9.43,7.44-17.89,14.02-25.2,11.79-13.1,26.45-20.62,44.05-22.26,11.99-1.13,23.49.86,34.37,5.98,30.29,14.24,45.35,48.43,35.49,80.37-9.43,30.58-39.08,50.07-71.2,46.58-19.19-2.08-34.63-11.11-46.23-26.47-9.87-13.09-14.01-28-13.16-44.35.04-.94-.28-1.9-.42-2.85-.12.01-.25.03-.37.04-.04.2-.1.42-.13.63-.04.31-.1.61-.13.92-.85,10.54.63,20.75,4.49,30.59,11.26,28.71,40.45,46.15,71.16,42.63,11.77-1.36,22.64-5.29,32-12.5,22.89-17.64,32.04-40.92,26.51-69.3-5.59-28.69-30.21-50.45-59.33-53.33-16.47-1.64-31.66,2.09-45.35,11.44-13.03,8.91-21.89,20.97-26.62,36.05-.19.66-.01,1.42-.01,2.14h0ZM113.27,116.18c4.39.69,8.58.57,12.74-.2,20.88-3.9,34.92-23.72,31.68-44.63-3.36-21.69-23.69-36.43-45.31-32.86-29.38,4.84-42.91,39.75-24.45,63.12,1.86,2.34,1.07,1.9,3.85,1.24-13.98-15.14-12.04-35.99-2.24-48.36,10.38-13.1,27.92-17.83,43.39-11.52,15.31,6.23,24.66,21.98,22.78,38.55-.92,8.12-4.17,15.27-9.83,21.18-8.76,9.15-19.6,12.77-32.14,11.48-.18.72-.31,1.3-.47,2.02h0ZM57.12,65.6h.5c.09-.34.2-.67.28-1.02,6.95-33.12,38.72-54.49,72.11-48.51,34.62,6.2,57.36,40.51,49.58,74.8-7.18,31.66-37.03,52.4-69.17,48.07-13.28-1.78-24.79-7.34-34.47-16.55-10.44-9.92-16.6-22.11-18.81-36.33-.22-1.45-.89-2.84-1.35-4.26-.25.2-.28.34-.28.47.01.31.03.61.06.92.98,10.13,4.18,19.49,9.61,28.11,15,23.84,44.56,34.97,71.57,26.92,32.33-9.62,51.51-42.48,43.95-75.33-8.2-35.68-45.36-57.28-80.42-46.26-22.96,7.22-37.28,23.09-43.32,46.37-.22.8.09,1.73.16,2.59h0ZM86.71,102.06c-13.13-17.49-9.59-39.98,3.01-52.94,12.56-12.9,32.3-16.04,48.39-7.4,15.79,8.48,24.23,26.98,20.21,44.37-2.09,9.07-6.68,16.63-13.91,22.51-9.17,7.47-19.73,10.18-31.49,8.77-.15.64-.26,1.21-.41,1.86,9.21,1.32,17.83-.06,25.88-4.34,16.69-8.88,25.21-26.35,22.14-45.07-3.04-18.59-19.57-33.58-38.39-34.81-9.14-.6-17.64,1.4-25.52,6.14-19.42,11.67-26.06,37.7-14.62,57.31,1.08,1.84,2.54,2.81,4.69,3.6h0ZM58.95,69.37c.13-.01.28-.03.41-.03.04-.15.1-.29.13-.45.97-7.14,3.1-13.91,6.65-20.17,10.66-18.7,26.75-29.26,48.19-31.16,13.42-1.2,26.06,1.94,37.2,9.59,20.21,13.89,29.17,33.28,26.67,57.68-1.29,12.61-6.52,23.72-15.25,32.92-15.66,16.5-34.94,22.89-57.11,17.93-22.67-5.06-37.38-19.45-44.59-41.53-.39-1.2-1.17-2.25-1.77-3.38-.13.73-.03,1.33.13,1.92,8.16,31.22,39.1,50.76,70.74,44.66,26.47-5.1,46.62-27.03,49.25-53.82,1.43-14.52-1.89-27.95-9.94-40.16-14.89-22.54-43.56-32.87-69.17-24.33-23.18,7.72-37.07,23.98-41.91,47.94-.16.75.23,1.59.37,2.4h0ZM48.83,63.92c-.13.01-.28.03-.41.04-1.51,7.84-1.7,15.75-.53,23.63,2.31,15.5,8.83,29.01,19.99,40.03,17.71,17.48,39.1,24.47,63.57,20.11,23.94-4.27,41.34-17.93,52.06-39.75,6.9-14.04,8.6-28.94,5.64-44.25-3.31-17.15-11.85-31.37-25.52-42.28-16.66-13.26-35.71-18.22-56.68-14.8-19.07,3.11-34.37,12.83-45.95,28.31-4.2,5.6-7.39,11.76-9.72,18.34-.2.58-.61,1.26.39,1.64.15-.41.29-.78.42-1.14,4.9-13.69,13.15-24.92,24.88-33.49,14.78-10.79,31.35-15.18,49.58-13.29,10.37,1.07,20.15,4.17,28.88,9.84,24.88,16.14,36.25,39.13,33.52,68.72-1.42,15.34-7.77,28.79-18.43,39.87-18.4,19.11-40.98,26.44-66.89,20.78-25.28-5.53-42.41-21.22-51.49-45.44-4.27-11.38-5.03-23.18-3.09-35.17.07-.54-.15-1.13-.23-1.7h0ZM106.57,132.4c.38.1.7.22,1.05.28,10.18,1.94,20.2,1.37,29.96-2.12,29.89-10.68,45.09-43.17,34.15-72.99-9.61-26.19-37.86-41.68-64.96-35.42-18.47,4.26-31.66,15.18-39.6,32.36-3.25,7.03-4.81,14.52-4.75,22.27.01,1.3.61,2.6.95,3.92.13-.03.26-.07.39-.12,0-.35.01-.7,0-1.05-.44-13.57,3.52-25.71,11.86-36.44,14.95-19.26,42.26-26.29,64.64-16.58,23.37,10.15,36.63,33.43,33.05,58.66-2.43,17.05-11.26,30.17-25.88,39.19-12.2,7.53-25.49,9.7-39.56,6.93-.92-.19-1.42-.07-1.3,1.11h0ZM106.89,129.89c2.14.34,4.2.79,6.3.98,15.4,1.39,29.07-2.82,40.86-12.87,16.76-14.3,23.02-38.17,15.5-58.82-9.04-24.88-34.16-39.51-60.24-34.83-16.48,2.95-28.91,11.98-37.34,26.4-5.57,9.53-7.58,19.92-6.89,30.89.13,2.16.48,4.27,2.21,6.2-2.85-16.98.72-32.13,11.98-44.98,11.3-12.9,25.8-18.91,42.89-17.89,27.92,1.65,49.53,25.14,49.06,53.06-.25,14.51-5.53,27-16.01,37-13.61,12.99-29.94,17.1-48.36,13.53l.03,1.35h0ZM52.34,56.72c.15.01.31.04.45.06.56-1.54,1.1-3.07,1.68-4.58C67.38,18.92,104.07.87,138.23,11.02c34.76,10.32,55.54,45.17,48.11,80.65-8.25,39.32-48.8,63.4-87.29,51.81-32.57-9.8-53.11-41.55-48.73-75.27.07-.5-.18-1.04-.26-1.56-1.39,6.54-1.46,13.03-.6,19.51,1.84,13.92,7.37,26.21,16.53,36.88,18.38,21.48,49.12,29.7,75.74,20.31,29.98-10.56,49.06-39.73,46.78-70.94-.69-9.3-3.03-18.12-7.22-26.44-13.34-26.5-41.56-41.61-70.9-38.05-14.86,1.8-27.83,7.84-38.87,17.96-8.76,8.03-15.02,17.71-18.88,28.93-.2.6-.2,1.27-.29,1.92h0ZM104.39,133.81c.01.23.03.47.04.7,3.36.48,6.71,1.16,10.11,1.39,10.92.78,21.28-1.36,31.09-6.29,22.18-11.11,35.27-36.6,31.34-61.08-1.87-11.63-6.51-21.98-14.54-30.59-14.58-15.63-32.61-21.95-53.7-18.53-15.95,2.59-28.6,10.92-38.01,24.07-5.94,8.31-9.33,17.62-10.37,27.77-.1.97.37,1.97.56,2.98l.38-.1c.13-1.49.2-3,.42-4.49,1.51-10.72,5.48-20.44,12.49-28.71,13.79-16.26,31.4-23.21,52.57-20.62,12.49,1.54,23.31,6.92,32.2,15.76,13.28,13.21,18.95,29.28,16.98,47.92-1.13,10.69-5,20.4-11.82,28.69-15,18.22-34.26,25.09-57.5,20.9-.72-.12-1.51.15-2.25.22h0ZM75.07,96.15c.15-.07.28-.15.42-.22-3.16-7.27-4.27-14.86-3.64-22.68.63-7.9,3.19-15.21,7.56-21.83,4.34-6.6,9.99-11.8,16.93-15.57,18.09-9.8,40.13-6.81,55.09,7.41,14.65,13.95,18.66,36.11,9.96,54.39-8.19,17.17-28.85,31.35-54.2,25.46-.38.83.06,1.05.8,1.21,7.2,1.62,14.38,1.64,21.59,0,25.4-5.79,42.56-31.27,36.12-58.17-6.29-26.32-32.16-41.97-58.45-35.7-27.84,6.64-43.87,37.06-33.59,63.83.26.69.92,1.24,1.4,1.87ZM87.86,105c-.37-.18-.6-.29-.83-.41-3.9-1.97-7.85-3.88-11.71-5.92-5.26-2.79-9.15-6.95-11.52-12.42-2.22-5.1-4.3-10.27-6.43-15.41-4.77-11.48-11.52-21.59-20.69-30.15-.57.51-1.18,1.05-1.75,1.55,2.78,3.06,5.62,5.94,8.16,9.04,6.39,7.82,10.46,16.88,13.48,26.43,1.71,5.37,3.73,10.59,7.02,15.24,5.73,8.12,14.43,11.63,23.28,15.15.35-1.05.66-2,1.01-3.09h0ZM38.35,33c.03-5.75-4.45-10.37-10.15-10.44-5.69-.09-10.41,4.59-10.46,10.31-.03,5.72,4.59,10.34,10.38,10.37,5.6.01,10.19-4.59,10.22-10.24h0ZM92.63,104.19c-1.16.03-1.92.45-2.31,1.54-.57,1.54-1.23,3.03-1.8,4.56-.83,2.24-.73,2.46,1.49,3.28.41.16.83.28,1.26.42,4.3,1.48,8.61,2.92,12.91,4.43,1.8.63,3.54,1.37,5.32,2.05.97.37,1.7.26,1.94-.99s.64-2.49.95-3.73c.29-1.17-.03-2.05-1.18-2.63-5.12-2.6-10.21-5.26-15.34-7.84-1.02-.48-2.16-.72-3.25-1.08h0ZM37.38,73.23v-12.39h-11.64v12.39h11.64ZM16.94,12.38c-1.64-1.89-3.23-3.73-4.87-5.62-3.47,3.03-6.83,5.97-10.27,8.95,1.65,1.89,3.25,3.7,4.88,5.57,3.44-2.98,6.77-5.88,10.25-8.91h0ZM52.63,37.04c-4.46,0-8.85-.03-13.22.06-.42.01-.91.76-1.23,1.26-.16.23-.15.82.04,1.02,2.87,3.13,5.78,6.2,8.63,9.24,1.89-3.77,3.79-7.6,5.78-11.58h0ZM101.33,133.51c.51-1.13-.12-1.3-.83-1.62-4.05-1.86-8.28-3.45-12.06-5.76-10.69-6.51-18.28-15.76-23.09-27.32-.39-.97-1.18-1.75-1.78-2.63-.13.1-.28.22-.41.32,6.9,18.32,19.58,30.67,38.18,37.01h0ZM67.64,99.76c-.16.12-.32.23-.48.35,3.77,8.54,9.36,15.72,16.69,21.53,5.34,4.23,11.23,7.41,17.74,9.42.63-1.49-.42-1.52-1.17-1.8-13.51-4.94-23.6-13.81-30.48-26.41-.61-1.11-1.52-2.06-2.3-3.09h0ZM102.18,125.82c.61-1.77.6-1.75-.94-2.37-1.11-.44-2.25-.82-3.29-1.42-3.42-1.94-7.05-3.64-10.11-6.04-2.9-2.27-5.12-5.35-7.77-7.96-.97-.95-2.3-1.54-3.45-2.28-.07.12-.15.25-.23.37,6.46,9.34,15.06,15.91,25.78,19.7h0ZM72.04,103.12c-.1.13-.2.26-.31.38,6.96,12.04,16.95,20.4,30.26,24.98.06-.56.1-.94.15-1.33-.22-.1-.38-.18-.54-.23-11.63-4.17-20.74-11.47-27.41-21.86-.48-.79-1.42-1.3-2.15-1.93h0ZM17.76,13.32c-3.5,3.06-6.83,5.97-10.24,8.94.47.53.83.95,1.26,1.42,3.45-3,6.8-5.91,10.24-8.89-.44-.51-.79-.94-1.26-1.46ZM103.86,123.32c.07.01.15.01.22.03-.35,2.57-.72,5.15-1.04,7.72-.06.45.18.94.26,1.4.5-.29,1.29-.48,1.43-.91,1.26-3.36,1.13-6.92,1.14-10.44,0-.26-.83-.67-1.29-.7-.22-.01-.63.66-.72,1.07-.1.57-.01,1.2-.01,1.83h0ZM21.11,23.69c-1.39-1.33-2.75-2.65-4.17-4.01-.6.53-1.24,1.1-1.97,1.74,1.51,1.43,2.91,2.75,4.28,4.07.57-.56,1.2-1.16,1.86-1.8h0ZM95.85,119.83c2.18.98,4.36,1.94,6.62,2.95.07-1.52-2.28-2.6-6.62-2.95ZM85.71,112.22c.37-1.55-1.14-3.06-3.48-3.28,1.26,1.18,2.35,2.22,3.48,3.28Z"/>
      <path class="cls-2" d="M95.53,77.37c.04-13.57,11.23-23.79,24.09-23.33,12.66.45,22.81,11.09,22.49,23.59-.32,13-10.73,23.21-23.69,22.93-14.01-.31-22.93-11.79-22.89-23.19h0ZM118.72,79.58c1.18.01,2.31-1.05,2.37-2.24.06-1.21-.99-2.27-2.27-2.28-1.26-.01-2.31,1.01-2.3,2.25,0,1.13,1.1,2.25,2.19,2.27Z"/>
      <path class="cls-5" d="M50.31,53.3c-.63-.85-1.05-1.54-1.58-2.11-.58-.61-.53-1.17-.23-1.9,3.2-8.01,7.6-15.3,13.32-21.75,11.98-13.57,26.88-22.21,44.79-24.89,26.45-3.95,49.21,3.85,67.69,23.27,10.81,11.35,17.37,25.01,19.36,40.54,3.44,26.97-5.03,49.78-25.3,67.96-11.42,10.24-25.01,16.13-40.22,17.99-38.58,4.74-73.98-20.03-83.02-58.01-2.75-11.52-2.59-23.06.04-34.6.07-.35.19-.67.35-1.21,1.29,1.93,2.34,3.45,1.93,6.04-4.04,25.48,3.09,47.43,21.6,65.38,11.7,11.35,25.93,17.8,42.13,19.41,20.17,2,38.27-3.39,53.92-16.34,14.07-11.66,22.59-26.66,25.37-44.71,2.78-18.08-.72-35.02-10.75-50.38-11.85-18.13-28.59-29.44-50.06-32.32-29.95-4.01-53.85,6.92-71.34,31.6-3.44,4.86-5.92,10.24-8.03,16.03h0Z"/>
      <path class="cls-2" d="M16.44,53.01c2.25,0,4.33.03,6.41-.03.34,0,.67-.34.99-.51-.06-.16-.12-.31-.18-.47h-10.27v-4.62h12.62c.04-.67.07-1.16.1-1.73h-13.95v7.28c.88.04,1.7.09,2.65.15,0,2.11.48,4.28-.1,6.13-1.36,4.4-.22,8.82-.66,13.21-.03.22-.03.44-.04.89-1.93,0-3.86-.06-5.78.03-.72.03-1.75-.58-2.12.67.7.19,1.4.54,2.11.54,10.59.03,21.18.03,31.76.03h1.32c.41,5.56.8,11,1.21,16.54H4.46v-54.17c0-4.27,2.49-6.76,6.77-6.76h5.45c0,1.77-.25,3.44.04,5,1.24,6.95,8.39,11,15.06,8.67.57-.2,1.07-.53,1.64.13,3.42,4.01,6.89,7.97,10.3,11.98.31.37.44,1.05.35,1.54-.89,5.18-1.86,10.34-2.82,15.68h-2.59v-4.39c0-2.62-.01-5.22,0-7.84,0-.76-.19-1.13-1.04-1.11-4.04.03-8.06.04-12.09,0-.95-.01-1.07.45-1.05,1.23.03,3.54.01,7.09.01,10.63v1.52h-7.28v-1.96c0-2.88.04-5.76-.03-8.63-.03-.99.56-2.19-.7-2.92-.07-.04-.04-.25-.04-.38,0-2.06,0-4.09,0-6.33h0ZM21.3,82.78c.06-3.73-2.95-6.8-6.65-6.83-3.69-.01-6.7,2.9-6.77,6.58-.09,3.79,2.79,6.86,6.52,6.93,3.85.07,6.84-2.84,6.9-6.68h0ZM10.3,32.13c-2.08-.03-3.83,1.65-3.89,3.73-.04,2.03,1.71,3.82,3.77,3.83,2.06.01,3.8-1.71,3.82-3.8.03-1.99-1.68-3.73-3.7-3.76h0ZM22.29,49.82h0c-1.1,0-2.21-.04-3.31.03-.29.01-.58.37-.86.57.28.22.56.63.85.64,2.12.06,4.24.04,6.35,0,.29,0,.58-.41.88-.61-.32-.2-.64-.56-.98-.58-.98-.1-1.96-.04-2.92-.04h0ZM26.71,48.75v.35h8.72v-.35h-8.72Z"/>
      <path class="cls-2" d="M107.97,121.59c.75.04,1.51.22,2.24.1.63-.09,1.2-.51,1.81-.75.37-.15.78-.34,1.14-.29,8.1,1.02,15.9-.07,23.35-3.39,18.34-8.16,28.66-27.42,25.37-47.25-3.1-18.76-18.28-33.53-37.06-36.06-23.21-3.13-44.66,12.25-49.01,35.29-1.9,10.08-.34,19.73,4.47,28.81.15.26.29.54.58,1.1-1.78-.91-3.29-1.46-4.11-3.32-11.99-27.08,4.71-58.47,33.96-63.72,24.71-4.45,48.52,11.98,53.2,36.71,4.68,24.69-11.63,48.71-36.37,53.54-6.2,1.21-12.42,1.13-18.6-.23-.34-.07-.67-.18-.99-.28.01-.09.01-.16,0-.25h0Z"/>
      <path class="cls-2" d="M53.47,74.92c.32,1.29.88,2.57.92,3.88.76,20.18,9.02,36.62,24.74,49.22,9.52,7.63,20.46,11.98,32.61,13.31,26.94,2.94,52.62-11.03,64.71-35.24,13.37-26.75,6.57-59.36-16.48-78.37-13.15-10.82-28.34-15.75-45.35-14.71-27.9,1.73-51.37,21.34-58.32,48.51-.09.34-.22.66-.34,1.04-.78-.83-.86-1.68-.56-2.72,6.11-20.61,19.04-35.14,38.83-43.51,9.13-3.86,18.73-5.43,28.58-4.65,22.8,1.78,40.36,12.46,52.4,31.91,7.21,11.64,10.11,24.5,9.2,38.1-1.95,28.93-22.13,53.07-50.48,59.52-24.14,5.48-45.26-.92-62.68-18.59-10.35-10.5-16.09-23.37-17.8-37.99-.37-3.19-.34-6.41-.5-9.62.18-.01.34-.04.51-.07h0Z"/>
      <path class="cls-2" d="M72.17,93.81c-1.89-1.21-2.85-2.72-3.33-4.75-5.81-24.93,7.56-50.26,31.53-59.61,28.28-11.03,60.41,5.37,68.05,34.72,7.25,27.86-9.42,55.98-37.35,62.94-7.98,1.99-16.03,1.99-24.12.07v-1.78c19.46,3.8,36.18-1.05,49.34-16.03,9.36-10.65,13.15-23.38,11.61-37.44-3.1-28.22-28.79-47.51-56.36-43.49-28.96,4.2-49.93,34.16-39.37,65.37h0Z"/>
      <path class="cls-2" d="M53.86,59.31c0-.72-.18-1.48.03-2.14,4.72-15.06,13.59-27.14,26.62-36.05,13.67-9.34,28.87-13.07,45.36-11.45,29.12,2.88,53.74,24.64,59.33,53.33,5.53,28.39-3.64,51.67-26.51,69.3-9.36,7.21-20.23,11.16-32,12.5-30.71,3.54-59.91-13.92-71.16-42.63-3.86-9.84-5.34-20.05-4.49-30.59.03-.31.07-.61.13-.92.03-.22.09-.42.13-.63.12-.01.25-.03.37-.04.15.95.47,1.92.42,2.85-.88,16.36,3.26,31.28,13.15,44.37,11.6,15.36,27.04,24.39,46.21,26.47,32.13,3.5,61.76-16,71.2-46.58,9.86-31.94-5.21-66.13-35.49-80.37-10.89-5.12-22.37-7.11-34.37-5.98-17.59,1.64-32.26,9.15-44.05,22.24-6.58,7.31-11.2,15.76-14.02,25.2-.12.38-.23.76-.35,1.13-.18,0-.34-.01-.51-.01h0Z"/>
      <path class="cls-2" d="M113.27,116.18c.16-.72.31-1.32.47-2.03,12.55,1.29,23.38-2.33,32.14-11.48,5.66-5.91,8.91-13.04,9.83-21.18,1.87-16.57-7.49-32.3-22.78-38.55-15.49-6.29-33.04-1.56-43.4,11.54-9.8,12.37-11.74,33.23,2.24,48.36-2.78.66-1.99,1.1-3.85-1.24-18.44-23.37-4.91-58.28,24.47-63.12,21.61-3.57,41.93,11.17,45.31,32.86,3.25,20.93-10.79,40.74-31.68,44.63-4.15.78-8.35.89-12.74.2h0Z"/>
      <path class="cls-4" d="M57.12,65.6c-.07-.86-.38-1.8-.18-2.59,6.04-23.28,20.36-39.15,43.32-46.37,35.07-11.03,72.21,10.57,80.43,46.26,7.56,32.85-11.61,65.71-43.95,75.33-27.01,8.04-56.57-3.09-71.57-26.92-5.43-8.61-8.63-17.97-9.61-28.11-.03-.31-.06-.61-.06-.92,0-.13.03-.26.28-.47.47,1.42,1.13,2.81,1.35,4.26,2.22,14.21,8.36,26.4,18.81,36.33,9.68,9.21,21.19,14.77,34.47,16.55,32.16,4.33,61.99-16.41,69.17-48.07,7.78-34.29-14.95-68.6-49.58-74.8-33.39-5.98-65.16,15.4-72.13,48.52-.07.35-.18.67-.28,1.02-.16-.01-.32,0-.48-.01h0Z"/>
      <path class="cls-2" d="M86.71,102.06c-2.15-.8-3.61-1.77-4.69-3.61-11.44-19.6-4.8-45.64,14.62-57.31,7.88-4.74,16.38-6.74,25.52-6.14,18.82,1.23,35.35,16.2,38.39,34.81,3.07,18.72-5.45,36.19-22.14,45.07-8.04,4.28-16.67,5.66-25.88,4.34.15-.64.26-1.21.41-1.86,11.76,1.4,22.32-1.32,31.49-8.77,7.21-5.88,11.8-13.44,13.91-22.51,4.02-17.39-4.42-35.89-20.21-44.37-16.09-8.64-35.83-5.5-48.39,7.4-12.61,12.97-16.14,35.46-3.01,52.95h0Z"/>
      <path class="cls-2" d="M58.95,69.37c-.13-.8-.53-1.67-.37-2.41,4.84-23.94,18.75-40.2,41.91-47.94,25.62-8.54,54.3,1.8,69.19,24.35,8.06,12.21,11.38,25.64,9.94,40.16-2.65,26.78-22.78,48.71-49.25,53.82-31.65,6.1-62.59-13.44-70.75-44.66-.15-.58-.26-1.18-.13-1.92.6,1.13,1.39,2.18,1.77,3.38,7.2,22.08,21.92,36.47,44.59,41.53,22.17,4.94,41.44-1.43,57.11-17.93,8.73-9.2,13.97-20.3,15.25-32.92,2.5-24.39-6.45-43.78-26.67-57.68-11.14-7.65-23.78-10.79-37.2-9.59-21.44,1.9-37.53,12.47-48.19,31.16-3.57,6.26-5.69,13.03-6.65,20.17-.01.16-.09.31-.13.45-.13.01-.28.03-.41.03h0Z"/>
      <path class="cls-4" d="M48.83,63.92c.07.57.31,1.16.22,1.68-1.94,11.99-1.18,23.81,3.09,35.17,9.1,24.22,26.21,39.92,51.49,45.45,25.93,5.66,48.49-1.67,66.89-20.78,10.66-11.07,17.01-24.54,18.43-39.87,2.75-29.57-8.64-52.56-33.52-68.72-8.73-5.67-18.51-8.76-28.88-9.84-18.21-1.89-34.78,2.5-49.56,13.29-11.73,8.57-19.98,19.82-24.88,33.49-.13.37-.28.73-.42,1.14-.99-.38-.6-1.05-.39-1.64,2.35-6.58,5.54-12.74,9.72-18.34,11.58-15.49,26.88-25.18,45.95-28.31,20.97-3.42,40.03,1.54,56.68,14.81,13.67,10.91,22.21,25.12,25.52,42.28,2.95,15.31,1.26,30.21-5.64,44.25-10.72,21.82-28.12,35.48-52.06,39.75-24.45,4.36-45.86-2.63-63.57-20.11-11.16-11.01-17.68-24.52-19.99-40.03-1.17-7.9-.98-15.79.53-23.63.13-.03.28-.04.41-.06h0Z"/>
      <path class="cls-4" d="M106.57,132.4c-.13-1.18.38-1.29,1.27-1.13,14.07,2.76,27.36.6,39.56-6.93,14.62-9.02,23.46-22.14,25.88-39.19,3.58-25.23-9.68-48.51-33.05-58.66-22.37-9.71-49.69-2.69-64.64,16.58-8.34,10.73-12.28,22.87-11.86,36.44.01.35,0,.7,0,1.05-.13.03-.26.07-.39.12-.34-1.3-.95-2.6-.95-3.92-.06-7.77,1.51-15.24,4.75-22.27,7.96-17.18,21.16-28.11,39.62-32.36,27.11-6.26,55.35,9.23,64.96,35.43,10.94,29.82-4.24,62.31-34.15,72.99-9.77,3.5-19.79,4.07-29.96,2.12-.32-.07-.66-.18-1.04-.28h0Z"/>
      <path class="cls-4" d="M106.89,129.89v-1.35c18.43,3.57,34.75-.54,48.36-13.53,10.49-9.99,15.76-22.49,16.01-37,.47-27.92-21.15-51.4-49.06-53.06-17.1-1.01-31.6,4.99-42.89,17.89-11.26,12.85-14.83,28-11.98,44.98-1.73-1.92-2.08-4.02-2.21-6.2-.69-10.95,1.32-21.35,6.89-30.89,8.42-14.42,20.85-23.44,37.34-26.4,26.07-4.68,51.18,9.96,60.24,34.83,7.5,20.65,1.24,44.52-15.5,58.82-11.79,10.06-25.46,14.26-40.86,12.87-2.14-.18-4.2-.64-6.33-.98h0Z"/>
      <path class="cls-2" d="M52.34,56.72c.09-.64.09-1.3.29-1.9,3.86-11.23,10.12-20.91,18.88-28.94,11.04-10.12,24.03-16.16,38.87-17.96,29.34-3.54,57.56,11.55,70.91,38.08,4.2,8.32,6.54,17.14,7.22,26.44,2.28,31.19-16.8,60.37-46.78,70.94-26.63,9.39-57.36,1.16-75.74-20.31-9.14-10.68-14.68-22.96-16.53-36.88-.86-6.48-.79-12.97.6-19.52.1.53.34,1.05.26,1.56-4.4,33.71,16.14,65.46,48.71,75.26,38.49,11.57,79.04-12.5,87.29-51.81,7.44-35.48-13.35-70.34-48.11-80.65C104.07.87,67.36,18.92,54.48,52.2c-.58,1.52-1.13,3.06-1.68,4.58-.15-.03-.31-.04-.45-.06h0Z"/>
      <path class="cls-4" d="M104.39,133.81c.75-.07,1.54-.34,2.24-.2,23.24,4.21,42.51-2.66,57.5-20.9,6.81-8.29,10.69-18,11.82-28.69,1.97-18.65-3.7-34.72-16.98-47.92-8.89-8.86-19.71-14.24-32.2-15.76-21.18-2.6-38.78,4.36-52.57,20.62-7,8.26-10.97,17.99-12.49,28.71-.2,1.49-.28,3-.42,4.49l-.38.1c-.2-.99-.66-2.02-.56-2.98,1.02-10.15,4.42-19.46,10.37-27.77,9.4-13.15,22.05-21.48,38.01-24.07,21.09-3.42,39.12,2.9,53.7,18.53,8.03,8.61,12.66,18.97,14.54,30.59,3.93,24.48-9.17,49.96-31.34,61.08-9.81,4.93-20.17,7.05-31.09,6.29-3.38-.23-6.73-.92-10.11-1.39,0-.23-.01-.47-.03-.72h0Z"/>
      <path class="cls-2" d="M75.07,96.15c-.47-.61-1.13-1.17-1.4-1.87-10.28-26.76,5.75-57.18,33.61-63.83,26.29-6.27,52.15,9.37,58.45,35.7,6.43,26.91-10.72,52.38-36.12,58.17-7.2,1.64-14.39,1.64-21.59,0-.73-.16-1.17-.38-.8-1.21,25.34,5.89,46.01-8.29,54.18-25.48,8.69-18.28,4.69-40.44-9.96-54.39-14.97-14.21-37.01-17.2-55.1-7.4-6.95,3.76-12.59,8.98-16.93,15.57-4.37,6.64-6.93,13.94-7.56,21.83-.63,7.81.5,15.41,3.64,22.68-.13.07-.28.15-.41.22Z"/>
      <path class="cls-2" d="M87.86,105c-.35,1.07-.66,2.03-.99,3.1-8.85-3.52-17.55-7.02-23.28-15.15-3.28-4.65-5.31-9.87-7.02-15.24-3.04-9.56-7.09-18.62-13.48-26.44-2.54-3.11-5.38-5.98-8.16-9.04.56-.5,1.17-1.04,1.75-1.55,9.15,8.57,15.93,18.67,20.69,30.15,2.14,5.15,4.21,10.31,6.43,15.41,2.38,5.45,6.26,9.62,11.52,12.42,3.86,2.05,7.81,3.95,11.71,5.92.22.12.45.23.82.41h0Z"/>
      <path class="cls-5" d="M38.35,33c-.03,5.64-4.62,10.25-10.21,10.22-5.78-.01-10.41-4.64-10.38-10.37.03-5.73,4.75-10.4,10.46-10.31,5.69.09,10.16,4.71,10.13,10.46h0ZM28.08,37.89c2.78,0,4.94-2.16,4.96-4.99.01-2.73-2.25-5.02-4.97-5-2.75.01-4.96,2.24-4.96,5.02s2.19,4.97,4.97,4.97Z"/>
      <path class="cls-5" d="M92.63,104.19c1.08.37,2.22.61,3.23,1.11,5.13,2.57,10.22,5.24,15.34,7.84,1.14.58,1.46,1.46,1.18,2.63-.31,1.24-.7,2.47-.95,3.73-.25,1.24-.98,1.35-1.94.99-1.78-.66-3.52-1.42-5.32-2.05-4.3-1.51-8.6-2.95-12.91-4.43-.42-.15-.85-.26-1.26-.42-2.22-.83-2.34-1.04-1.49-3.28.57-1.54,1.23-3.03,1.8-4.56.41-1.11,1.17-1.54,2.33-1.56h0ZM107.59,112.59c-1.58.03-2.85,1.32-2.85,2.88s1.39,2.95,2.98,2.91c1.58-.04,2.82-1.32,2.82-2.91s-1.29-2.91-2.95-2.88h0Z"/>
      <path class="cls-2" d="M37.38,73.23h-11.64v-12.39h11.64v12.39Z"/>
      <path class="cls-2" d="M16.94,12.38c-3.48,3.03-6.8,5.92-10.24,8.91-1.64-1.87-3.23-3.69-4.88-5.57,3.42-2.98,6.79-5.92,10.25-8.95,1.64,1.89,3.22,3.73,4.87,5.62h0Z"/>
      <path class="cls-5" d="M52.63,37.04c-1.99,3.98-3.89,7.81-5.78,11.58-2.85-3.04-5.76-6.13-8.63-9.24-.18-.2-.19-.78-.04-1.02.32-.5.8-1.24,1.23-1.26,4.39-.1,8.76-.06,13.22-.06h0Z"/>
      <path class="cls-4" d="M101.33,133.51c-18.6-6.36-31.28-18.69-38.17-37,.13-.1.28-.22.41-.32.6.88,1.39,1.68,1.78,2.63,4.81,11.55,12.4,20.81,23.09,27.32,3.79,2.31,8.01,3.9,12.06,5.76.7.31,1.33.48.82,1.61h0Z"/>
      <path class="cls-4" d="M67.64,99.76c.78,1.02,1.7,1.97,2.3,3.1,6.87,12.61,16.98,21.47,30.48,26.41.75.26,1.8.31,1.17,1.8-6.52-2.02-12.4-5.19-17.74-9.42-7.33-5.82-12.91-13-16.69-21.54.16-.12.32-.23.48-.35h0Z"/>
      <path class="cls-2" d="M102.18,125.82c-10.72-3.8-19.32-10.35-25.78-19.68.07-.12.15-.25.23-.37,1.16.75,2.49,1.33,3.45,2.28,2.65,2.6,4.87,5.69,7.77,7.96,3.07,2.4,6.7,4.11,10.11,6.04,1.04.58,2.18.97,3.29,1.42,1.54.6,1.55.58.94,2.35h0Z"/>
      <path class="cls-4" d="M72.04,103.12c.73.64,1.67,1.14,2.16,1.93,6.67,10.4,15.78,17.7,27.41,21.86.16.06.32.13.54.23-.04.39-.09.78-.15,1.33-13.31-4.58-23.31-12.93-30.26-24.98.09-.12.19-.25.29-.38h0Z"/>
      <path class="cls-5" d="M17.76,13.32c.45.53.82.95,1.26,1.46-3.44,2.98-6.79,5.91-10.24,8.89-.41-.47-.79-.89-1.26-1.42,3.41-2.95,6.74-5.88,10.24-8.94Z"/>
      <path class="cls-2" d="M103.86,123.32c0-.61-.09-1.26.03-1.84.09-.41.5-1.08.72-1.07.47.04,1.3.45,1.29.7-.01,3.51.1,7.06-1.14,10.44-.16.42-.94.61-1.43.91-.1-.47-.32-.95-.26-1.4.31-2.57.69-5.15,1.04-7.72-.07,0-.16-.01-.23-.01h0Z"/>
      <path class="cls-5" d="M21.11,23.69c-.67.64-1.3,1.26-1.86,1.78-1.37-1.3-2.78-2.63-4.28-4.07.73-.64,1.37-1.21,1.97-1.74,1.42,1.37,2.78,2.68,4.17,4.02h0Z"/>
      <path class="cls-2" d="M95.85,119.83c4.34.35,6.68,1.43,6.62,2.95-2.25-1.01-4.43-1.97-6.62-2.95Z"/>
      <path class="cls-2" d="M85.71,112.22c-1.13-1.05-2.22-2.09-3.48-3.28,2.33.22,3.83,1.73,3.48,3.28Z"/>
      <path class="cls-1" d="M21.3,82.78c-.06,3.85-3.06,6.74-6.92,6.67-3.73-.07-6.61-3.13-6.52-6.93.09-3.69,3.09-6.6,6.77-6.58,3.71.04,6.73,3.13,6.67,6.84h0ZM14.52,78.23c-2.49.01-4.47,2-4.47,4.46s2.06,4.61,4.53,4.61,4.55-2.11,4.55-4.59c-.03-2.53-2.05-4.5-4.61-4.47h0Z"/>
      <path class="cls-1" d="M10.3,32.13c2,.03,3.71,1.77,3.7,3.77-.01,2.09-1.75,3.82-3.82,3.8-2.08-.01-3.83-1.81-3.77-3.83.06-2.09,1.83-3.79,3.89-3.74h0ZM12.14,35.84c-.03-1.04-.97-1.9-2.02-1.84-.98.06-1.84.95-1.84,1.92s.98,1.96,1.97,1.93c1.04-.03,1.92-.97,1.89-2h0Z"/>
      <path class="cls-1" d="M22.29,49.82c.97,0,1.94-.06,2.91.03.34.03.66.38.98.58-.29.22-.57.61-.88.61-2.12.06-4.24.06-6.35,0-.29,0-.56-.42-.85-.64.29-.2.57-.56.86-.57,1.11-.06,2.21-.01,3.32-.01h0Z"/>
      <path class="cls-1" d="M26.71,48.75h8.72v.35h-8.72v-.35Z"/>
      <path class="cls-3" d="M28.08,37.89c-2.76,0-4.96-2.19-4.96-4.97s2.21-5,4.96-5.02c2.72-.01,4.99,2.27,4.97,5-.04,2.81-2.19,4.97-4.97,4.99ZM25.2,32.48c-.07,1.55,1.16,2.9,2.72,3,1.55.1,3.04-1.29,3.06-2.84.03-1.52-1.29-2.88-2.82-2.94-1.54-.06-2.88,1.21-2.95,2.78h0Z"/>
      <path class="cls-1" d="M107.59,112.59c1.67-.03,2.95,1.24,2.95,2.9s-1.24,2.87-2.82,2.91c-1.59.04-2.98-1.32-2.98-2.91s1.27-2.87,2.85-2.9h0ZM109.65,115.42c-.03-1.1-1.01-2.02-2.09-1.96-1.11.06-1.96,1.01-1.9,2.12.06,1.13.97,1.9,2.14,1.84,1.08-.06,1.9-.95,1.86-2h0Z"/>
      <path class="cls-5" d="M14.52,78.23c2.56-.01,4.59,1.96,4.59,4.47s-2.06,4.59-4.55,4.59-4.53-2.11-4.53-4.61c.01-2.47,1.99-4.45,4.49-4.46h0ZM14.54,80.12c-1.46.01-2.6,1.16-2.6,2.6s1.18,2.63,2.6,2.65c1.46.01,2.71-1.26,2.66-2.72-.01-1.45-1.17-2.54-2.66-2.53h0Z"/>
      <path class="cls-5" d="M12.14,35.84c.03,1.04-.85,1.97-1.89,2-.99.03-1.96-.92-1.97-1.93,0-.97.85-1.86,1.84-1.92,1.07-.06,2,.8,2.02,1.84Z"/>
      <path class="cls-3" d="M25.2,32.48c.07-1.56,1.42-2.84,2.95-2.78s2.85,1.43,2.82,2.94c-.03,1.55-1.51,2.92-3.06,2.84-1.56-.09-2.78-1.45-2.72-3h0Z"/>
      <path class="cls-2" d="M109.65,115.42c.03,1.07-.78,1.94-1.86,2-1.18.06-2.08-.7-2.14-1.84-.06-1.11.8-2.06,1.9-2.12,1.08-.06,2.06.86,2.09,1.96h0Z"/>
      <path class="cls-1" d="M14.54,80.12c1.48-.01,2.63,1.08,2.68,2.53.04,1.46-1.2,2.73-2.66,2.72-1.42-.01-2.6-1.2-2.6-2.65-.01-1.45,1.13-2.59,2.59-2.6h0ZM16.43,82.75c.01-.98-.86-1.84-1.86-1.83-1.01.01-1.9.88-1.81,1.86.09,1.05.69,1.7,1.78,1.75,1.01.04,1.87-.78,1.89-1.78h0Z"/>
      <path class="cls-5" d="M16.43,82.75c-.01,1.01-.86,1.83-1.9,1.77-1.1-.06-1.7-.69-1.78-1.75-.07-.99.8-1.84,1.81-1.86,1.01,0,1.87.86,1.87,1.84h0Z"/>
    </g>
  </g>
</svg>