<?xml version="1.0" encoding="UTF-8"?>
<svg id="Layer_2" data-name="Layer 2" xmlns="http://www.w3.org/2000/svg" viewBox="0 0 1341 1056.71">
  <defs>
    <style>
      .cls-1, .cls-2, .cls-3, .cls-4, .cls-5, .cls-6 {
        stroke-width: 0px;
      }

      .cls-2 {
        fill: #5a665c;
      }

      .cls-3 {
        fill: #decebf;
      }

      .cls-4 {
        fill: #bb9852;
      }

      .cls-5 {
        fill: #986e48;
      }

      .cls-6 {
        fill: #e4d8c7;
      }
    </style>
  </defs>
  <g id="Layer_1-2" data-name="Layer 1">
    <g>
      <g>
        <path class="cls-1" d="M19.45,677.9c0-4.45,0-7.7,0-10.95,0-139.03-.01-278.06,0-417.09,0-31.42,20.85-52.52,52.07-52.77,13.03-.1,26.06.19,39.07-.25,3.04-.1,7.69-1.79,8.54-3.95.88-2.23-1.17-6.75-3.33-8.84-8.9-8.61-18.33-16.68-28.03-25.36-4.7,4.08-11.01,9.7-17.48,15.14-7.94,6.66-12.79,6.54-19.43-.99-15.41-17.49-30.71-35.1-45.86-52.82-6.92-8.1-6.79-12.43.99-19.3,23.6-20.85,47.39-41.49,71.19-62.12,6.06-5.25,12.1-4.86,17.46,1.25,15.76,17.99,31.57,35.95,47.16,54.09,6.18,7.19,5.55,12.42-1.43,18.76-4.47,4.05-9,8.05-14.32,12.8,8.95,9.49,17.44,18.8,26.38,27.66,1.28,1.27,5.05,1.23,7.05.37,49.93-21.48,104.9,11.68,110,64.78.77,8.05.11,16.23.11,25.34,1.79.16,4.34.57,6.88.58,27.57.05,55.14-.09,82.71.13,5.37.04,8.68-1.45,11.84-6.13C454.65,114.67,569.18,35.88,716.15,9.46c165.57-29.77,314.42,10.83,442.42,120.45,95.69,81.94,154.28,186.6,174.7,310.86,22.2,135.1-3.23,261.76-78.79,376.47-81.34,123.49-195.24,202.51-340.72,229.19-192.29,35.27-357.24-20.57-491.85-162.64-53.92-56.91-90.93-124.28-114.18-199.08-2.17-7-5.94-6.89-11.31-6.89-88.16.08-176.32.06-264.48.07-3.83,0-7.67,0-12.5,0ZM653.15,528.95c-.22,78.07,60.7,156.55,156.49,158.62,88.66,1.92,159.84-67.92,162.04-156.82,2.12-85.52-67.24-158.16-153.85-161.3-87.84-3.18-164.39,66.68-164.68,159.5ZM343.98,364.4c14.4-39.61,31.41-76.43,54.94-109.64C518.5,85.97,681.86,11.27,886.68,38.73c146.75,19.67,261.24,96.99,342.27,221,68.57,104.94,92.48,220.89,73.52,344.49-18.92,123.39-77.21,225.99-173.46,305.66-106.96,88.54-230.75,125.43-368.65,111.72-110.87-11.02-208.14-55.12-288.14-132.69-126.67-122.84-175.3-272.95-147.76-447.05,2.8-17.7-4.49-28.15-13.24-41.31-1.09,3.66-1.9,5.94-2.44,8.29-18.06,78.83-19.08,157.78-.31,236.57,61.85,259.72,303.94,429.14,567.72,396.73,104.02-12.78,196.9-53.01,275.01-123.04,138.61-124.27,196.55-280.24,173.01-464.68-13.56-106.21-58.49-199.6-132.37-277.21C1065.47,44.47,909.89-8.83,728.96,18.13c-122.47,18.25-224.36,77.42-306.34,170.19-39.03,44.16-69.16,93.97-91.07,148.74-2.02,5.04-2.42,8.77,1.58,12.99,3.69,3.9,6.56,8.58,10.85,14.35ZM112.38,362.37c0,15.3,0,29.19.01,43.08,0,.9-.18,2.36.27,2.62,8.55,5.03,4.6,13.27,4.77,20.05.49,19.67.18,39.37.18,59.05,0,4.42,0,8.85,0,13.4h49.83c0-3.82,0-7.08,0-10.35,0-24.23.09-48.46-.08-72.69-.04-5.3.71-8.48,7.25-8.42,27.56.25,55.13.2,82.69-.02,5.78-.05,7.18,2.44,7.13,7.64-.18,17.87-.05,35.74-.04,53.6,0,9.91,0,19.82,0,30.01h17.66c6.66-36.55,13.21-71.85,19.34-107.23.58-3.32-.34-8.04-2.44-10.52-23.27-27.47-46.99-54.55-70.38-81.92-3.86-4.52-7.3-2.26-11.21-.89-45.58,15.93-94.47-11.85-103.02-59.3-1.93-10.74-.28-22.12-.28-34.2-12.61,0-24.96-.02-37.32,0-29.22.04-46.26,17-46.26,46.21-.03,120.23-.02,240.47-.02,360.7,0,3.2,0,6.39,0,9.68h260.16c-2.8-37.92-5.54-75.13-8.34-113.08-2.38,0-5.67,0-8.96,0-72.4,0-144.79.08-217.19-.16-4.8-.02-9.58-2.43-14.37-3.73,2.52-8.58,9.59-4.35,14.5-4.58,13.14-.62,26.32-.21,39.51-.21.15-3.07.16-4.58.31-6.07,2.95-29.95-4.82-60.18,4.5-90.28,3.92-12.64.65-27.51.65-41.9-6.49-.36-12.07-.68-18.09-1.02v-49.76h95.37c-.22,3.84-.41,7.21-.67,11.77h-86.3v31.61h70.3c.39,1.07.79,2.14,1.18,3.21-2.28,1.22-4.53,3.45-6.84,3.51-14.18.33-28.37.16-43.79.16ZM738.32,831.38c0,.59,0,1.18,0,1.77,2.28.63,4.55,1.35,6.85,1.86,42.27,9.35,84.73,9.91,127.15,1.63,169.19-33.04,280.7-197.38,248.69-366.14-32.07-169.06-194.82-281.33-363.83-250.99-200.05,35.92-314.18,250.52-232.15,435.79,5.61,12.68,15.86,16.5,28.11,22.65-2.05-3.85-3.05-5.69-4.03-7.55-32.9-62.14-43.59-128.13-30.62-196.99,29.65-157.5,176.39-262.64,335.09-241.29,128.39,17.27,232.18,118.28,253.46,246.67,22.46,135.5-48.11,267.22-173.54,323.06-50.93,22.67-104.28,30.23-159.67,23.2-2.5-.32-5.32.99-7.83,1.96-4.2,1.61-8.13,4.47-12.43,5.1-4.95.72-10.16-.4-15.26-.72ZM365.55,512.21c-1.13.18-2.26.36-3.39.54,1.06,21.93.85,44.01,3.4,65.76,11.72,99.99,50.92,188.02,121.69,259.83,119.03,120.79,263.47,164.66,428.57,127.1,193.85-44.09,331.89-209.24,345.18-407.01,6.25-93.06-13.59-180.94-62.89-260.55-82.34-132.96-202.46-205.96-358.34-218.2-67.32-5.29-133.06,5.42-195.42,31.78-135.27,57.18-223.7,156.62-265.45,297.51-2.1,7.1-1.5,12.93,3.79,18.61.84-2.51,1.75-4.74,2.34-7.06,47.44-185.82,207.93-319.96,398.8-331.7,116.24-7.15,220.18,26.54,310.11,100.72,157.53,129.96,204.1,352.99,112.65,535.87-82.78,165.53-258.33,261.08-442.54,240.97-83.03-9.07-157.91-38.82-222.97-90.99-107.5-86.2-163.97-198.62-169.17-336.64-.34-8.92-4.15-17.7-6.35-26.55ZM493.5,641.44c-72.19-213.48,71.2-418.31,269.04-447.13,188.48-27.46,364.16,104.43,385.39,297.42,10.57,96.15-15.38,183.19-79.36,256.01-89.99,102.41-204.27,135.61-337.41,109.64v12.18c55.32,13.12,110.29,13.14,164.93-.47,191-47.59,304.97-239.95,255.43-430.43-52.21-200.7-271.91-312.79-465.28-237.38-163.83,63.89-255.22,237.09-215.5,407.67,3.23,13.89,9.84,24.24,22.77,32.5ZM368.25,405.48c1.18.08,2.37.16,3.55.24.81-2.58,1.64-5.15,2.41-7.74,19.26-64.51,50.89-122.32,95.89-172.33,80.6-89.58,180.88-140.95,301.21-152.19,82.03-7.66,160.58,5.93,235.04,40.95,207.05,97.36,310.09,331.2,242.68,549.61-64.54,209.1-267.16,342.38-486.88,318.52-131.19-14.25-236.76-76.01-316.05-181-67.6-89.52-95.91-191.54-90.09-303.34.34-6.44-1.86-13-2.88-19.51-.84.1-1.67.2-2.51.3-.3,1.44-.66,2.88-.9,4.33-.34,2.09-.71,4.18-.88,6.29-5.81,72.08,4.3,141.9,30.69,209.19,76.96,196.26,276.6,315.62,486.63,291.46,80.54-9.27,154.8-36.18,218.83-85.54,156.48-120.6,219.12-279.79,181.35-473.88-38.18-196.21-206.59-344.98-405.69-364.69-112.76-11.17-216.64,14.33-310.23,78.29-89.07,60.87-149.7,143.41-181.99,246.46-1.39,4.45-.18,9.71-.18,14.6ZM774.45,794.42c30.01,4.69,58.7,3.88,87.11-1.42,142.78-26.65,238.8-162.18,216.57-305.24-23.04-148.28-161.99-249.06-309.77-224.69-200.84,33.11-293.4,271.87-167.2,431.58,12.65,16.01,7.27,13.04,26.26,8.55-95.61-103.54-82.35-246.13-15.35-330.71,70.96-89.57,190.89-121.91,296.69-78.82,104.66,42.63,168.61,150.3,155.85,263.56-6.26,55.55-28.49,104.38-67.17,144.8-59.87,62.57-133.96,87.3-219.77,78.47-1.15,4.98-2.08,9.03-3.21,13.92ZM390.57,448.55c1.13,0,2.25-.02,3.38-.03.63-2.33,1.37-4.63,1.87-6.98,47.51-226.49,264.82-372.67,493.18-331.74,236.73,42.44,392.17,277,338.97,511.54-49.09,216.45-253.15,358.27-473.01,328.68-90.81-12.22-169.48-50.23-235.72-113.21-71.36-67.84-113.43-151.18-128.6-248.39-1.55-9.94-6.09-19.4-9.24-29.09-1.73,1.44-1.94,2.34-1.9,3.22.09,2.12.24,4.23.44,6.34,6.71,69.26,28.64,133.28,65.71,192.19,102.55,162.97,304.73,239.07,489.38,184.08,221.09-65.84,352.17-290.54,300.52-515.14-56.12-244.05-310.14-391.71-549.92-316.29-157,49.38-254.86,157.89-296.2,317.09-1.41,5.44.69,11.79,1.15,17.72ZM592.86,697.82c-89.78-119.61-65.62-273.42,20.63-361.99,85.89-88.2,220.9-109.68,330.92-50.61,107.99,57.98,165.66,184.48,138.18,303.41-14.32,61.96-45.73,113.68-95.05,153.86-62.69,51.06-134.93,69.63-215.29,60.02-.98,4.41-1.84,8.31-2.82,12.73,62.96,9.02,121.95-.43,176.97-29.69,114.14-60.7,172.38-180.24,151.4-308.24-20.84-127.15-133.82-229.6-262.53-237.98-62.49-4.07-120.61,9.62-174.5,41.98-132.82,79.76-178.17,257.84-99.98,391.86,7.34,12.59,17.39,19.21,32.07,24.67ZM403.07,474.34c.93-.08,1.87-.17,2.8-.25.29-1.04.71-2.05.86-3.11,6.59-48.79,21.16-95.11,45.53-137.86,72.9-127.87,182.9-200.08,329.5-213.12,91.84-8.17,178.25,13.28,254.45,65.62,138.24,94.96,199.47,227.61,182.38,394.37-8.83,86.22-44.57,162.19-104.29,225.07-107.11,112.77-238.9,156.46-390.54,122.61-154.99-34.6-255.62-133-304.85-283.98-2.66-8.15-8.03-15.41-12.14-23.08-.93,4.96-.15,9.06.91,13.1,55.79,213.55,267.38,347.14,483.75,305.43,181.02-34.89,318.79-184.83,336.85-367.95,9.79-99.29-12.92-191.09-68.03-274.56-101.84-154.27-297.94-224.92-473.11-166.52-158.47,52.82-253.51,164.02-286.61,327.76-1.03,5.11,1.61,10.97,2.54,16.48ZM333.88,437.04c-.94.09-1.88.18-2.81.28-10.29,53.65-11.63,107.66-3.6,161.62,15.78,105.95,60.38,198.4,136.69,273.68,121.09,119.45,267.43,167.29,434.68,137.49,163.69-29.16,282.68-122.6,356.02-271.76,47.18-95.95,58.76-197.94,38.6-302.58-22.61-117.32-80.98-214.47-174.51-289.07-113.9-90.84-244.2-124.68-387.56-101.26-130.45,21.31-235.01,87.67-314.19,193.54-28.65,38.31-50.49,80.38-66.55,125.43-1.42,3.99-4.16,8.61,2.69,11.25,1.03-2.75,2-5.26,2.91-7.79,33.53-93.55,89.88-170.45,170.11-229.02,101.1-73.81,214.46-103.83,339.04-90.92,70.95,7.35,137.84,28.49,197.54,67.26,170.09,110.44,247.9,267.64,229.15,469.85-9.73,104.89-53.12,196.92-126.03,272.64-125.84,130.7-280.16,180.78-457.43,142.08-172.95-37.76-289.99-145.14-352.11-310.69-29.18-77.76-34.43-158.53-21.12-240.51.59-3.66-.96-7.67-1.51-11.52ZM728.71,905.28c2.56.69,4.84,1.45,7.18,1.9,69.58,13.3,138.07,9.38,204.89-14.49,204.45-73.03,308.26-295.24,233.49-499.13-65.7-179.13-258.89-285-444.25-242.25-126.28,29.12-216.54,103.77-270.84,221.26-22.25,48.14-32.92,99.26-32.55,152.34.06,8.94,4.24,17.85,6.52,26.78.91-.25,1.81-.5,2.72-.75,0-2.41.07-4.82,0-7.22-2.97-92.82,24.08-175.78,81.06-249.21,102.22-131.74,289-179.79,442-113.35,159.75,69.37,250.47,228.62,225.98,401.09-16.55,116.57-77.02,206.31-177,268.01-83.41,51.47-174.31,66.28-270.54,47.37-6.11-1.2-9.54-.45-8.66,7.65ZM730.88,888.09c14.55,2.32,28.74,5.43,43.1,6.73,105.31,9.49,198.83-19.26,279.4-88.03,114.55-97.78,157.36-260.97,106.02-402.23-61.83-170.13-233.58-270.22-411.87-238.19-112.68,20.25-197.67,81.92-255.29,180.53-38.07,65.16-51.8,136.25-47.08,211.19.94,14.85,3.27,29.25,15.12,42.36-19.53-116.06,4.87-219.68,81.91-307.59,77.27-88.17,176.38-129.26,293.33-122.32,190.91,11.33,338.71,171.94,335.48,362.82-1.68,99.22-37.81,184.63-109.46,252.98-93.09,88.81-204.67,116.92-330.66,92.51v9.22ZM357.88,387.75c1.05.13,2.09.26,3.14.39,3.83-10.45,7.48-20.97,11.5-31.34C460.68,129.2,711.63,5.83,945.25,75.21c237.68,70.58,379.85,308.94,328.96,551.53-56.4,268.85-333.69,433.46-596.89,354.34-222.74-66.96-363.24-284.13-333.16-514.72.45-3.41-1.18-7.1-1.84-10.66-9.46,44.73-9.97,89.13-4.1,133.45,12.6,95.2,50.44,179.18,112.97,252.23,125.69,146.85,335.85,203.08,517.92,138.91,204.99-72.24,335.54-271.74,319.94-485.08-4.65-63.6-20.72-123.87-49.37-180.77C1148.36,133.05,955.4,29.84,754.79,54.08c-101.59,12.28-190.36,53.58-265.83,122.8-59.86,54.9-102.64,121.11-129.08,197.86-1.41,4.08-1.36,8.66-1.99,13ZM713.81,914.94c.09,1.62.18,3.23.27,4.85,23.01,3.26,45.92,7.89,69.05,9.53,74.7,5.27,145.51-9.28,212.63-42.95,151.66-76.05,241.24-250.28,214.34-417.7-12.77-79.47-44.49-150.3-99.41-209.21-99.66-106.91-223.04-150.12-367.19-126.69-109.06,17.73-195.6,74.72-259.88,164.6-40.62,56.8-63.82,120.49-70.86,189.91-.67,6.59,2.46,13.55,3.82,20.35l2.56-.68c.93-10.24,1.43-20.54,2.86-30.71,10.32-73.29,37.46-139.77,85.37-196.28,94.26-111.19,214.68-158.72,359.51-140.98,85.43,10.47,159.37,47.29,220.21,107.83,90.78,90.33,129.6,200.18,116.11,327.69-7.73,73.08-34.18,139.52-80.81,196.17-102.58,124.62-234.34,171.64-393.25,142.86-4.87-.88-10.22.87-15.35,1.4ZM513.23,657.39c.97-.5,1.95-1,2.92-1.5-21.57-49.66-29.21-101.63-24.95-155.07,4.31-54.04,21.77-103.96,51.66-149.32,29.73-45.11,68.34-80.74,115.84-106.48,123.68-67,274.4-46.64,376.7,50.66,100.25,95.35,127.55,246.91,68.11,371.86-55.89,117.48-197.23,214.48-370.5,174.2-2.55,5.69.45,7.16,5.48,8.3,49.22,11.12,98.35,11.18,147.59-.04,173.73-39.59,291.02-213.75,247.04-397.78-43.03-180.02-219.92-286.98-399.67-244.12-190.51,45.43-300.12,253.45-229.77,436.46,1.84,4.79,6.3,8.58,9.55,12.83ZM600.76,717.91c-2.47-1.23-4.07-2.01-5.66-2.81-26.73-13.47-53.68-26.51-80.13-40.51-36.02-19.07-62.55-47.53-78.81-84.88-15.19-34.89-29.39-70.22-43.97-105.37-32.56-78.49-78.83-147.59-141.47-206.19-3.94,3.48-8.12,7.16-11.97,10.56,19,20.93,38.41,40.56,55.8,61.84,43.73,53.49,71.47,115.37,92.24,180.74,11.66,36.7,25.53,72.42,47.95,104.22,39.15,55.54,98.66,79.49,159.17,103.59,2.36-7.29,4.47-13.84,6.85-21.18ZM262.18,225.61c.21-39.32-30.45-70.9-69.36-71.45-38.91-.55-71.24,31.36-71.46,70.54-.22,39.14,31.43,70.73,70.99,70.85,38.19.12,69.62-31.37,69.83-69.95ZM633.36,712.37c-7.93.23-13.08,3.08-15.84,10.52-3.89,10.48-8.39,20.73-12.3,31.2-5.71,15.32-4.96,16.76,10.25,22.43,2.83,1.06,5.73,1.93,8.58,2.9,29.43,10.09,58.91,20.04,88.28,30.33,12.26,4.3,24.22,9.43,36.4,13.96,6.62,2.47,11.64,1.78,13.29-6.75,1.66-8.58,4.38-16.95,6.47-25.46,1.96-8-.25-14-8.06-17.97-35.01-17.79-69.84-35.95-104.94-53.56-6.91-3.47-14.73-5.12-22.13-7.61ZM255.56,500.68v-84.74h-79.64v84.74h79.64ZM115.74,84.64c-11.2-12.95-22.09-25.53-33.26-38.43-23.74,20.72-46.72,40.76-70.18,61.24,11.29,12.86,22.19,25.28,33.43,38.09,23.48-20.42,46.27-40.24,70.02-60.89ZM359.92,253.19c-30.52,0-60.45-.25-90.37.39-2.94.06-6.24,5.2-8.44,8.59-1.07,1.65-.99,5.61.26,6.97,19.63,21.35,39.54,42.44,59.04,63.22,12.88-25.81,25.9-51.92,39.5-79.17ZM692.89,912.9c3.46-7.68-.78-8.87-5.67-11.11-27.7-12.7-56.59-23.59-82.47-39.36-73.07-44.52-125.02-107.75-157.88-186.79-2.73-6.56-8.09-12.03-12.23-18.01-.93.74-1.86,1.49-2.79,2.23,47.1,125.21,133.83,209.59,261.04,253.05ZM462.45,682.08c-1.1.8-2.2,1.6-3.3,2.4,25.81,58.44,63.99,107.48,114.12,147.22,36.46,28.9,76.75,50.66,121.3,64.43,4.35-10.16-2.91-10.41-7.97-12.26-92.38-33.8-161.45-94.4-208.43-180.64-4.16-7.64-10.43-14.13-15.72-21.15ZM698.68,860.35c4.18-12.14,4.14-12.03-6.41-16.21-7.59-3.01-15.44-5.64-22.49-9.65-23.37-13.28-48.15-24.92-69.13-41.34-19.76-15.46-34.99-36.6-53.07-54.37-6.6-6.49-15.67-10.46-23.61-15.58-.52.85-1.04,1.69-1.56,2.54,44.2,63.8,102.93,108.63,176.26,134.61ZM492.62,705.09c-.71.88-1.42,1.76-2.13,2.64,47.55,82.33,115.9,139.45,206.93,170.77.43-3.79.73-6.4,1.04-9.13-1.51-.67-2.56-1.22-3.66-1.62-79.49-28.48-141.79-78.38-187.37-149.45-3.44-5.37-9.81-8.86-14.81-13.22ZM121.41,91.01c-23.89,20.88-46.74,40.85-69.95,61.14,3.2,3.63,5.72,6.48,8.56,9.72,23.57-20.49,46.48-40.4,69.99-60.84-3.03-3.52-5.48-6.39-8.6-10.02ZM710.22,843.16c.5.06,1.01.11,1.51.17-2.4,17.59-4.95,35.16-7.05,52.78-.37,3.07,1.17,6.37,1.83,9.56,3.38-2.03,8.75-3.33,9.83-6.22,8.57-23.02,7.74-47.32,7.84-71.37,0-1.75-5.66-4.57-8.85-4.83-1.49-.12-4.3,4.48-4.89,7.28-.85,4.04-.22,8.4-.22,12.62ZM144.3,161.85c-9.48-9.11-18.77-18.05-28.51-27.41-4.11,3.61-8.54,7.52-13.49,11.87,10.31,9.75,19.91,18.83,29.35,27.75,3.78-3.64,8.09-7.8,12.65-12.21ZM655.42,819.29c14.91,6.67,29.82,13.33,45.29,20.25.44-10.47-15.63-17.88-45.29-20.25ZM586.04,767.33c2.48-10.63-7.84-20.93-23.77-22.39,8.6,8.1,16.12,15.19,23.77,22.39Z"/>
        <path class="cls-2" d="M653.15,528.95c.29-92.82,76.84-162.68,164.68-159.5,86.61,3.13,155.97,75.77,153.85,161.3-2.2,88.9-73.38,158.74-162.04,156.82-95.79-2.07-156.71-80.54-156.49-158.62ZM811.74,544.14c8.07.11,15.84-7.22,16.23-15.32.4-8.28-6.75-15.48-15.49-15.59-8.6-.11-15.75,6.88-15.72,15.38.03,7.67,7.51,15.43,14.98,15.53Z"/>
        <path class="cls-2" d="M343.98,364.4c-4.29-5.77-7.16-10.45-10.85-14.35-4-4.22-3.59-7.95-1.58-12.99,21.92-54.77,52.04-104.57,91.07-148.74,81.98-92.77,183.87-151.94,306.34-170.19,180.93-26.97,336.51,26.34,462.88,159.08,73.88,77.61,118.82,171,132.37,277.21,23.54,184.43-34.4,340.41-173.01,464.68-78.11,70.03-171,110.27-275.01,123.04-263.78,32.4-505.86-137.02-567.72-396.73-18.76-78.79-17.74-157.74.31-236.57.54-2.35,1.35-4.63,2.44-8.29,8.76,13.16,16.04,23.61,13.24,41.31-27.54,174.1,21.09,324.21,147.76,447.05,80,77.58,177.27,121.68,288.14,132.69,137.89,13.7,261.69-23.18,368.65-111.72,96.25-79.68,154.54-182.28,173.46-305.66,18.96-123.61-4.95-239.55-73.52-344.49-81.03-124.01-195.52-201.33-342.27-221-204.82-27.46-368.18,47.24-487.76,216.03-23.53,33.21-40.54,70.03-54.94,109.64Z"/>
        <path class="cls-2" d="M112.38,362.37c15.41,0,29.61.16,43.79-.16,2.31-.05,4.56-2.28,6.84-3.51-.39-1.07-.79-2.14-1.18-3.21h-70.3v-31.61h86.3c.26-4.56.45-7.93.67-11.77h-95.37v49.76c6.02.34,11.61.65,18.09,1.02,0,14.39,3.26,29.26-.65,41.9-9.32,30.1-1.55,60.32-4.5,90.28-.15,1.49-.16,3-.31,6.07-13.19,0-26.37-.41-39.51.21-4.92.23-11.98-4-14.5,4.58,4.79,1.3,9.58,3.72,14.37,3.73,72.4.24,144.79.16,217.19.16,3.29,0,6.57,0,8.96,0,2.8,37.96,5.55,75.16,8.34,113.08H30.44c0-3.29,0-6.48,0-9.68,0-120.23,0-240.47.02-360.7,0-29.21,17.05-46.17,46.26-46.21,12.35-.02,24.71,0,37.32,0,0,12.08-1.65,23.46.28,34.2,8.55,47.46,57.44,75.23,103.02,59.3,3.91-1.37,7.35-3.62,11.21.89,23.39,27.37,47.11,54.45,70.38,81.92,2.1,2.48,3.02,7.2,2.44,10.52-6.13,35.38-12.68,70.68-19.34,107.23h-17.66c0-10.19,0-20.1,0-30.01,0-17.87-.14-35.74.04-53.6.05-5.21-1.34-7.69-7.13-7.64-27.56.22-55.13.27-82.69.02-6.54-.06-7.28,3.12-7.25,8.42.17,24.23.08,48.46.08,72.69,0,3.27,0,6.53,0,10.35h-49.83c0-4.55,0-8.97,0-13.4,0-19.68.31-39.38-.18-59.05-.17-6.78,3.79-15.02-4.77-20.05-.45-.27-.27-1.72-.27-2.62-.01-13.89-.01-27.78-.01-43.08ZM145.6,566.05c.39-25.46-20.19-46.55-45.54-46.69-25.21-.13-45.75,19.79-46.33,44.96-.6,25.92,19.13,46.89,44.58,47.36,26.36.49,46.9-19.33,47.3-45.63ZM70.42,219.59c-14.16-.25-26.25,11.33-26.6,25.51-.35,13.89,11.69,26.12,25.85,26.25,14.09.13,25.98-11.72,26.08-26,.1-13.61-11.6-25.51-25.32-25.76ZM152.37,340.57s0,.02,0,.03c-7.54,0-15.1-.29-22.62.19-2.05.13-3.96,2.54-5.93,3.9,1.91,1.53,3.8,4.34,5.75,4.39,14.47.36,28.96.33,43.43-.05,2.03-.05,3.98-2.75,5.97-4.22-2.23-1.41-4.37-3.84-6.7-4.03-6.59-.55-13.26-.19-19.9-.19ZM182.6,333.28c0,.79.01,1.57.02,2.36h59.62c0-.79,0-1.57-.01-2.36h-59.63Z"/>
        <path class="cls-2" d="M738.32,831.38c5.1.32,10.32,1.45,15.26.72,4.3-.63,8.23-3.49,12.43-5.1,2.51-.96,5.33-2.27,7.83-1.96,55.39,7.03,108.74-.53,159.67-23.2,125.43-55.84,196-187.55,173.54-323.06-21.28-128.38-125.07-229.39-253.46-246.67-158.7-21.35-305.43,83.79-335.09,241.29-12.97,68.86-2.28,134.85,30.62,196.99.98,1.85,1.98,3.7,4.03,7.55-12.25-6.15-22.5-9.97-28.11-22.65-82.04-185.27,32.1-399.87,232.15-435.79,169.01-30.35,331.76,81.93,363.83,250.99,32.01,168.76-79.51,333.09-248.69,366.14-42.42,8.29-84.88,7.72-127.15-1.63-2.31-.51-4.57-1.24-6.85-1.86,0-.59,0-1.18,0-1.77Z"/>
        <path class="cls-2" d="M365.55,512.21c2.2,8.85,6.01,17.63,6.35,26.55,5.2,138.01,61.67,250.43,169.17,336.64,65.06,52.17,139.94,81.93,222.97,90.99,184.2,20.11,359.76-75.44,442.54-240.97,91.45-182.87,44.88-405.91-112.65-535.87-89.93-74.19-193.87-107.87-310.11-100.72-190.87,11.74-351.36,145.89-398.8,331.7-.59,2.31-1.5,4.55-2.34,7.06-5.29-5.68-5.89-11.51-3.79-18.61,41.75-140.89,130.18-240.33,265.45-297.51,62.36-26.36,128.1-37.07,195.42-31.78,155.89,12.24,276,85.24,358.34,218.2,49.3,79.6,69.14,167.48,62.89,260.55-13.29,197.77-151.33,362.92-345.18,407.01-165.1,37.55-309.54-6.31-428.57-127.1-70.77-71.81-109.97-159.84-121.69-259.83-2.55-21.76-2.34-43.83-3.4-65.76,1.13-.18,2.26-.36,3.39-.54Z"/>
        <path class="cls-2" d="M493.5,641.44c-12.93-8.26-19.54-18.61-22.77-32.5-39.71-170.58,51.67-343.78,215.5-407.67,193.37-75.41,413.07,36.68,465.28,237.38,49.55,190.48-64.42,382.84-255.43,430.43-54.64,13.61-109.61,13.59-164.93.47v-12.18c133.14,25.96,247.42-7.23,337.41-109.64,63.98-72.82,89.94-159.86,79.36-256.01-21.22-193-196.9-324.89-385.39-297.42-197.84,28.82-341.23,233.66-269.04,447.13Z"/>
        <path class="cls-2" d="M368.25,405.48c0-4.89-1.22-10.15.18-14.6,32.29-103.05,92.92-185.59,181.99-246.46,93.59-63.96,197.47-89.46,310.23-78.29,199.1,19.72,367.52,168.48,405.69,364.69,37.77,194.09-24.88,353.28-181.35,473.88-64.03,49.35-138.3,76.27-218.83,85.54-210.03,24.16-409.67-95.2-486.63-291.46-26.39-67.29-36.5-137.11-30.69-209.19.17-2.11.54-4.2.88-6.29.24-1.45.6-2.89.9-4.33.84-.1,1.67-.2,2.51-.3,1.02,6.51,3.22,13.07,2.88,19.51-5.82,111.8,22.48,213.83,90.09,303.34,79.29,104.99,184.86,166.76,316.05,181,219.72,23.86,422.34-109.42,486.88-318.52,67.41-218.41-35.63-452.25-242.68-549.61-74.47-35.02-153.02-48.61-235.04-40.95-120.33,11.24-220.61,62.61-301.21,152.19-45,50.01-76.63,107.82-95.89,172.33-.77,2.59-1.61,5.16-2.41,7.74-1.18-.08-2.37-.16-3.55-.24Z"/>
        <path class="cls-2" d="M774.45,794.42c1.13-4.9,2.06-8.95,3.21-13.92,85.81,8.84,159.9-15.9,219.77-78.47,38.68-40.42,60.91-89.25,67.17-144.8,12.76-113.27-51.19-220.94-155.85-263.56-105.8-43.09-225.73-10.75-296.69,78.82-67.01,84.59-80.26,227.17,15.35,330.71-18.99,4.5-13.61,7.47-26.26-8.55-126.2-159.72-33.64-398.47,167.2-431.58,147.79-24.37,286.73,76.42,309.77,224.69,22.23,143.06-73.79,278.59-216.57,305.24-28.41,5.3-57.09,6.11-87.11,1.42Z"/>
        <path class="cls-6" d="M390.57,448.55c-.46-5.93-2.56-12.28-1.15-17.72,41.34-159.21,139.2-267.71,296.2-317.09,239.78-75.42,493.8,72.24,549.92,316.29,51.65,224.6-79.43,449.3-300.52,515.14-184.65,54.99-386.83-21.11-489.38-184.08-37.07-58.91-59.01-122.94-65.71-192.19-.2-2.11-.36-4.23-.44-6.34-.04-.88.17-1.78,1.9-3.22,3.15,9.69,7.69,19.15,9.24,29.09,15.17,97.21,57.24,180.55,128.6,248.39,66.24,62.98,144.91,100.99,235.72,113.21,219.86,29.59,423.91-112.23,473.01-328.68,53.2-234.54-102.24-469.1-338.97-511.54-228.36-40.93-445.66,105.25-493.18,331.74-.49,2.35-1.24,4.65-1.87,6.98-1.13,0-2.25.02-3.38.03Z"/>
        <path class="cls-2" d="M592.86,697.82c-14.69-5.46-24.73-12.08-32.07-24.67-78.19-134.02-32.84-312.1,99.98-391.86,53.89-32.36,112.01-46.05,174.5-41.98,128.71,8.38,241.69,110.84,262.53,237.98,20.98,128-37.26,247.54-151.4,308.24-55.03,29.26-114.01,38.72-176.97,29.69.98-4.41,1.84-8.32,2.82-12.73,80.36,9.62,152.6-8.95,215.29-60.02,49.32-40.18,80.73-91.9,95.05-153.86,27.48-118.93-30.19-245.43-138.18-303.41-110.02-59.07-245.04-37.59-330.92,50.61-86.25,88.56-110.4,242.38-20.63,361.99Z"/>
        <path class="cls-2" d="M403.07,474.34c-.93-5.51-3.58-11.37-2.54-16.48,33.1-163.74,128.15-274.94,286.61-327.76,175.18-58.39,371.28,12.26,473.11,166.52,55.11,83.48,77.82,175.27,68.03,274.56-18.06,183.12-155.83,333.06-336.85,367.95-216.37,41.71-427.96-91.88-483.75-305.43-1.05-4.03-1.84-8.14-.91-13.1,4.11,7.67,9.48,14.94,12.14,23.08,49.24,150.98,149.86,249.38,304.85,283.98,151.64,33.85,283.43-9.83,390.54-122.61,59.72-62.88,95.46-138.85,104.29-225.07,17.08-166.76-44.14-299.41-182.38-394.37-76.2-52.34-162.61-73.79-254.45-65.62-146.6,13.03-256.6,85.25-329.5,213.12-24.37,42.75-38.94,89.07-45.53,137.86-.14,1.06-.56,2.07-.86,3.11-.93.08-1.87.17-2.8.25Z"/>
        <path class="cls-6" d="M333.88,437.04c.55,3.85,2.11,7.85,1.51,11.52-13.31,81.98-8.06,162.75,21.12,240.51,62.12,165.55,179.16,272.93,352.11,310.69,177.27,38.7,331.59-11.38,457.43-142.08,72.91-75.73,116.3-167.76,126.03-272.64,18.75-202.21-59.06-359.41-229.15-469.85-59.7-38.77-126.58-59.91-197.54-67.26-124.58-12.91-237.94,17.11-339.04,90.92-80.23,58.57-136.58,135.47-170.11,229.02-.91,2.53-1.88,5.04-2.91,7.79-6.85-2.64-4.12-7.25-2.69-11.25,16.07-45.05,37.9-87.12,66.55-125.43,79.18-105.87,183.74-172.23,314.19-193.54,143.36-23.42,273.67,10.42,387.56,101.26,93.52,74.59,151.9,171.75,174.51,289.07,20.16,104.65,8.58,206.63-38.6,302.58-73.34,149.16-192.33,242.61-356.02,271.76-167.25,29.79-313.59-18.04-434.68-137.49-76.31-75.28-120.91-167.73-136.69-273.68-8.04-53.96-6.69-107.96,3.6-161.62.94-.09,1.88-.18,2.81-.28Z"/>
        <path class="cls-6" d="M728.71,905.28c-.88-8.11,2.55-8.85,8.66-7.65,96.23,18.91,187.13,4.1,270.54-47.37,99.98-61.7,160.45-151.44,177-268.01,24.49-172.47-66.24-331.72-225.98-401.09-153-66.44-339.78-18.39-442,113.35-56.98,73.44-84.03,156.39-81.06,249.21.08,2.41,0,4.82,0,7.22-.91.25-1.81.5-2.72.75-2.28-8.93-6.45-17.84-6.52-26.78-.37-53.08,10.3-104.21,32.55-152.34,54.3-117.49,144.56-192.14,270.84-221.26,185.36-42.75,378.55,63.12,444.25,242.25,74.77,203.88-29.04,426.1-233.49,499.13-66.82,23.87-135.31,27.78-204.89,14.49-2.34-.45-4.62-1.21-7.18-1.9Z"/>
        <path class="cls-6" d="M730.88,888.09v-9.22c125.99,24.4,237.57-3.7,330.66-92.51,71.65-68.35,107.78-153.76,109.46-252.98,3.23-190.88-144.58-351.49-335.48-362.82-116.95-6.94-216.06,34.15-293.33,122.32-77.04,87.91-101.44,191.53-81.91,307.59-11.84-13.11-14.18-27.51-15.12-42.36-4.72-74.94,9.01-146.04,47.08-211.19,57.62-98.61,142.62-160.29,255.29-180.53,178.28-32.03,350.03,68.06,411.87,238.19,51.34,141.25,8.53,304.44-106.02,402.23-80.57,68.77-174.09,97.52-279.4,88.03-14.36-1.29-28.55-4.41-43.1-6.73Z"/>
        <path class="cls-2" d="M357.88,387.75c.63-4.35.59-8.92,1.99-13,26.44-76.75,69.22-142.96,129.08-197.86,75.47-69.22,164.25-110.52,265.83-122.8,200.61-24.24,393.57,78.97,484.89,260.36,28.65,56.9,44.72,117.17,49.37,180.77,15.6,213.35-114.94,412.84-319.94,485.08-182.07,64.17-392.23,7.94-517.92-138.91-62.52-73.05-100.37-157.03-112.97-252.23-5.86-44.31-5.36-88.71,4.1-133.45.66,3.56,2.29,7.24,1.84,10.66-30.08,230.59,110.42,447.75,333.16,514.72,263.19,79.12,540.49-85.5,596.89-354.34,50.89-242.59-91.28-480.95-328.96-551.53C711.63,5.83,460.68,129.2,372.53,356.8c-4.02,10.38-7.68,20.89-11.5,31.34-1.05-.13-2.09-.26-3.14-.39Z"/>
        <path class="cls-6" d="M713.81,914.94c5.13-.53,10.48-2.28,15.35-1.4,158.9,28.79,290.67-18.24,393.25-142.86,46.63-56.65,73.08-123.09,80.81-196.17,13.49-127.51-25.33-237.36-116.11-327.69-60.84-60.55-134.79-97.37-220.21-107.83-144.84-17.75-265.25,29.79-359.51,140.98-47.91,56.51-75.05,122.99-85.37,196.28-1.43,10.17-1.93,20.47-2.86,30.71l-2.56.68c-1.36-6.79-4.49-13.76-3.82-20.35,7.04-69.42,30.24-133.11,70.86-189.91,64.27-89.88,150.81-146.87,259.88-164.6,144.15-23.43,267.53,19.77,367.19,126.69,54.91,58.91,86.64,129.74,99.41,209.21,26.9,167.42-62.68,341.64-214.34,417.7-67.13,33.66-137.94,48.22-212.63,42.95-23.13-1.63-46.04-6.27-69.05-9.53-.09-1.62-.18-3.23-.27-4.85Z"/>
        <path class="cls-2" d="M513.23,657.39c-3.24-4.25-7.7-8.04-9.55-12.83-70.35-183,39.26-391.03,229.77-436.46,179.75-42.86,356.64,64.1,399.67,244.12,43.99,184.03-73.31,358.2-247.04,397.78-49.24,11.22-98.37,11.16-147.59.04-5.04-1.14-8.04-2.61-5.48-8.3,173.27,40.28,314.62-56.72,370.5-174.2,59.44-124.95,32.14-276.51-68.11-371.86-102.3-97.3-253.02-117.66-376.7-50.66-47.5,25.73-86.11,61.36-115.84,106.48-29.89,45.36-47.36,95.27-51.66,149.32-4.26,53.44,3.38,105.41,24.95,155.07-.97.5-1.95,1-2.92,1.5Z"/>
        <path class="cls-2" d="M600.76,717.91c-2.37,7.34-4.49,13.89-6.85,21.18-60.52-24.1-120.03-48.05-159.17-103.59-22.42-31.81-36.29-67.52-47.95-104.22-20.77-65.36-48.51-127.25-92.24-180.74-17.39-21.28-36.8-40.9-55.8-61.84,3.85-3.4,8.03-7.08,11.97-10.56,62.63,58.6,108.91,127.7,141.47,206.19,14.58,35.16,28.78,70.48,43.97,105.37,16.26,37.35,42.79,65.81,78.81,84.88,26.45,14,53.4,27.04,80.13,40.51,1.59.8,3.18,1.58,5.66,2.81Z"/>
        <path class="cls-5" d="M262.18,225.61c-.21,38.58-31.64,70.07-69.83,69.95-39.55-.13-71.2-31.71-70.99-70.85.22-39.18,32.54-71.1,71.46-70.54,38.91.55,69.57,32.13,69.36,71.45ZM191.93,258.95c19.05-.05,33.75-14.82,33.88-34.05.13-18.72-15.36-34.33-33.95-34.22-18.81.11-33.87,15.36-33.87,34.3,0,18.98,15.03,34.02,33.94,33.97Z"/>
        <path class="cls-5" d="M633.36,712.37c7.4,2.49,15.22,4.15,22.13,7.61,35.1,17.61,69.92,35.77,104.94,53.56,7.81,3.97,10.02,9.97,8.06,17.97-2.09,8.51-4.81,16.88-6.47,25.46-1.65,8.53-6.67,9.22-13.29,6.75-12.18-4.53-24.14-9.66-36.4-13.96-29.36-10.29-58.84-20.25-88.28-30.33-2.86-.98-5.76-1.85-8.58-2.9-15.21-5.68-15.96-7.12-10.25-22.43,3.91-10.47,8.41-20.73,12.3-31.2,2.76-7.44,7.91-10.29,15.84-10.52ZM735.67,769.79c-10.8.18-19.51,9.01-19.48,19.74.03,10.94,9.52,20.22,20.39,19.94,10.82-.28,19.32-9.04,19.31-19.9,0-11.32-8.85-19.97-20.21-19.78Z"/>
        <path class="cls-2" d="M255.56,500.68h-79.64v-84.74h79.64v84.74Z"/>
        <path class="cls-2" d="M115.74,84.64c-23.75,20.65-46.54,40.48-70.02,60.89-11.24-12.8-22.14-25.22-33.43-38.09,23.47-20.48,46.44-40.52,70.18-61.24,11.17,12.9,22.05,25.49,33.26,38.43Z"/>
        <path class="cls-5" d="M359.92,253.19c-13.59,27.25-26.62,53.36-39.5,79.17-19.5-20.79-39.41-41.88-59.04-63.22-1.25-1.36-1.33-5.32-.26-6.97,2.2-3.39,5.5-8.53,8.44-8.59,29.92-.63,59.85-.39,90.37-.39Z"/>
        <path class="cls-2" d="M692.89,912.9c-127.21-43.46-213.94-127.84-261.04-253.05.93-.74,1.86-1.49,2.79-2.23,4.14,5.98,9.5,11.45,12.23,18.01,32.86,79.04,84.81,142.27,157.88,186.79,25.88,15.77,54.76,26.66,82.47,39.36,4.89,2.24,9.14,3.43,5.67,11.11Z"/>
        <path class="cls-2" d="M462.45,682.08c5.29,7.02,11.56,13.51,15.72,21.15,46.98,86.24,116.05,146.84,208.43,180.64,5.05,1.85,12.31,2.11,7.97,12.26-44.55-13.77-84.84-35.53-121.3-64.43-50.13-39.74-88.32-88.77-114.12-147.22,1.1-.8,2.2-1.6,3.3-2.4Z"/>
        <path class="cls-2" d="M698.68,860.35c-73.34-25.98-132.06-70.8-176.26-134.61.52-.85,1.04-1.69,1.56-2.54,7.94,5.12,17.01,9.09,23.61,15.58,18.08,17.77,33.31,38.91,53.07,54.37,20.98,16.42,45.76,28.06,69.13,41.34,7.05,4,14.9,6.64,22.49,9.65,10.54,4.18,10.58,4.07,6.41,16.21Z"/>
        <path class="cls-2" d="M492.62,705.09c5.01,4.36,11.37,7.85,14.81,13.22,45.58,71.07,107.89,120.97,187.37,149.45,1.1.39,2.15.94,3.66,1.62-.31,2.73-.61,5.34-1.04,9.13-91.03-31.32-159.38-88.44-206.93-170.77.71-.88,1.42-1.76,2.13-2.64Z"/>
        <path class="cls-5" d="M121.41,91.01c3.12,3.63,5.58,6.49,8.6,10.02-23.52,20.44-46.42,40.35-69.99,60.84-2.85-3.23-5.36-6.09-8.56-9.72,23.21-20.29,46.06-40.26,69.95-61.14Z"/>
        <path class="cls-2" d="M710.22,843.16c0-4.22-.63-8.58.22-12.62.59-2.8,3.39-7.4,4.89-7.28,3.2.26,8.86,3.08,8.85,4.83-.1,24.05.73,48.34-7.84,71.37-1.08,2.89-6.45,4.18-9.83,6.22-.66-3.19-2.2-6.49-1.83-9.56,2.1-17.62,4.65-35.2,7.05-52.78-.5-.06-1.01-.11-1.51-.17Z"/>
        <path class="cls-5" d="M144.3,161.85c-4.56,4.4-8.88,8.57-12.65,12.21-9.43-8.92-19.04-18-29.35-27.75,4.95-4.36,9.39-8.26,13.49-11.87,9.73,9.36,19.03,18.29,28.51,27.41Z"/>
        <path class="cls-2" d="M655.42,819.29c29.66,2.36,45.73,9.78,45.29,20.25-15.46-6.91-30.37-13.58-45.29-20.25Z"/>
        <path class="cls-2" d="M586.04,767.33c-7.65-7.2-15.17-14.29-23.77-22.39,15.93,1.46,26.25,11.76,23.77,22.39Z"/>
        <path class="cls-1" d="M811.74,544.14c-7.47-.1-14.95-7.86-14.98-15.53-.03-8.51,7.11-15.5,15.72-15.38,8.74.12,15.89,7.31,15.49,15.59-.39,8.09-8.16,15.43-16.23,15.32Z"/>
        <path class="cls-1" d="M145.6,566.05c-.4,26.3-20.94,46.12-47.3,45.63-25.45-.47-45.18-21.43-44.58-47.36.59-25.17,21.12-45.09,46.33-44.96,25.36.13,45.93,21.22,45.54,46.69ZM99.23,534.87c-17,.13-30.57,13.67-30.61,30.55-.03,17.12,14.13,31.52,30.97,31.49,16.95-.03,31.13-14.36,31.08-31.4-.05-17.28-13.9-30.77-31.44-30.64Z"/>
        <path class="cls-1" d="M70.42,219.59c13.72.25,25.42,12.14,25.32,25.76-.1,14.28-11.98,26.13-26.08,26-14.16-.13-26.2-12.36-25.85-26.25.36-14.18,12.44-25.76,26.6-25.51ZM83.02,245.01c-.18-7.14-6.57-13-13.76-12.61-6.72.36-12.61,6.49-12.57,13.07.04,6.91,6.67,13.43,13.45,13.22,7.05-.22,13.06-6.6,12.88-13.68Z"/>
        <path class="cls-1" d="M152.37,340.57c6.64,0,13.31-.36,19.9.19,2.33.2,4.47,2.62,6.7,4.03-1.99,1.47-3.94,4.17-5.97,4.22-14.47.39-28.96.41-43.43.05-1.95-.05-3.83-2.86-5.75-4.39,1.97-1.36,3.88-3.77,5.93-3.9,7.51-.47,15.07-.19,22.62-.19,0-.01,0-.02,0-.03Z"/>
        <path class="cls-1" d="M182.6,333.28h59.63c0,.79,0,1.57.01,2.36h-59.62c0-.79-.01-1.57-.02-2.36Z"/>
        <path class="cls-2" d="M191.93,258.95c-18.91.05-33.94-14.99-33.94-33.97,0-18.94,15.06-34.19,33.87-34.3,18.6-.11,34.08,15.5,33.95,34.22-.13,19.23-14.83,34-33.88,34.05ZM172.29,222.02c-.45,10.63,7.89,19.84,18.58,20.52,10.58.67,20.77-8.75,20.93-19.35.15-10.4-8.78-19.71-19.33-20.14-10.48-.43-19.73,8.26-20.19,18.98Z"/>
        <path class="cls-1" d="M735.67,769.79c11.37-.19,20.2,8.46,20.21,19.78,0,10.86-8.49,19.62-19.31,19.9-10.87.28-20.36-9-20.39-19.94-.03-10.74,8.68-19.56,19.48-19.74ZM749.81,789.15c-.24-7.46-6.95-13.75-14.26-13.38-7.55.38-13.42,6.93-13.02,14.51.4,7.71,6.56,13,14.62,12.57,7.33-.4,12.9-6.42,12.66-13.69Z"/>
        <path class="cls-5" d="M99.23,534.87c17.54-.13,31.39,13.36,31.44,30.64.05,17.03-14.13,31.36-31.08,31.4-16.84.03-31-14.36-30.97-31.49.03-16.88,13.6-30.43,30.61-30.55ZM99.42,547.79c-10.01.09-17.81,7.92-17.76,17.85.04,9.84,8.08,18,17.83,18.08,10.04.09,18.54-8.58,18.25-18.6-.29-9.97-8.17-17.43-18.31-17.34Z"/>
        <path class="cls-5" d="M83.02,245.01c.18,7.08-5.84,13.46-12.88,13.68-6.78.21-13.41-6.31-13.45-13.22-.04-6.58,5.85-12.71,12.57-13.07,7.2-.39,13.59,5.46,13.76,12.61Z"/>
        <path class="cls-2" d="M172.29,222.02c.46-10.72,9.7-19.41,20.19-18.98,10.54.43,19.48,9.75,19.33,20.14-.15,10.6-10.35,20.03-20.93,19.35-10.7-.68-19.04-9.89-18.58-20.52Z"/>
        <path class="cls-2" d="M749.81,789.15c.24,7.28-5.33,13.3-12.66,13.69-8.06.44-14.22-4.85-14.62-12.57-.4-7.58,5.48-14.12,13.02-14.51,7.31-.37,14.02,5.92,14.26,13.38Z"/>
        <path class="cls-1" d="M99.42,547.79c10.14-.09,18.02,7.37,18.31,17.34.29,10.02-8.21,18.68-18.25,18.6-9.74-.08-17.78-8.24-17.83-18.08-.04-9.93,7.75-17.76,17.76-17.85ZM112.23,565.78c.1-6.7-5.88-12.6-12.68-12.54-6.91.07-12.97,5.95-12.44,12.7.57,7.24,4.67,11.6,12.15,11.98,7.04.36,12.88-5.25,12.98-12.14Z"/>
        <path class="cls-5" d="M112.23,565.78c-.1,6.89-5.94,12.5-12.98,12.14-7.47-.38-11.58-4.74-12.15-11.98-.53-6.75,5.53-12.63,12.44-12.7,6.8-.07,12.78,5.84,12.68,12.54Z"/>
      </g>
    </g>
  </g>
</svg>