<?xml version="1.0" encoding="utf-8"?>
<!-- Generator: Adobe Illustrator 28.1.0, SVG Export Plug-In . SVG Version: 6.00 Build 0)  -->
<svg version="1.1" id="Layer_1" xmlns="http://www.w3.org/2000/svg" xmlns:xlink="http://www.w3.org/1999/xlink" x="0px" y="0px"
	 viewBox="0 0 1341 1056.7" style="enable-background:new 0 0 1341 1056.7;" xml:space="preserve">
<style type="text/css">
	.st0{fill:#2D5268;}
	.st1{fill:#BB9852;}
	.st2{fill:#DECEBF;}
	.st3{fill:#5A665C;}
</style>
<path d="M19.5,677.9c0-4.5,0-7.7,0-11c0-139,0-278.1,0-417.1c0-31.4,20.8-52.5,52.1-52.8c13-0.1,26.1,0.2,39.1-0.2
	c3-0.1,7.7-1.8,8.5-3.9c0.9-2.2-1.2-6.8-3.3-8.8c-8.9-8.6-18.3-16.7-28-25.4c-4.7,4.1-11,9.7-17.5,15.1c-7.9,6.7-12.8,6.5-19.4-1
	C35.5,155.4,20.2,137.7,5,120c-6.9-8.1-6.8-12.4,1-19.3c23.6-20.8,47.4-41.5,71.2-62.1c6.1-5.2,12.1-4.9,17.5,1.2
	c15.8,18,31.6,36,47.2,54.1c6.2,7.2,5.5,12.4-1.4,18.8c-4.5,4.1-9,8.1-14.3,12.8c9,9.5,17.4,18.8,26.4,27.7c1.3,1.3,5,1.2,7,0.4
	c49.9-21.5,104.9,11.7,110,64.8c0.8,8.1,0.1,16.2,0.1,25.3c1.8,0.2,4.3,0.6,6.9,0.6c27.6,0.1,55.1-0.1,82.7,0.1
	c5.4,0,8.7-1.4,11.8-6.1C454.7,114.6,569.2,35.9,716.2,9.4c165.6-29.8,314.4,10.8,442.4,120.4c95.7,81.9,154.3,186.6,174.7,310.9
	c22.2,135.1-3.2,261.8-78.8,376.5c-81.3,123.5-195.2,202.5-340.7,229.2c-192.3,35.3-357.2-20.6-491.9-162.6
	C368,826.8,331,759.5,307.7,684.7c-2.2-7-5.9-6.9-11.3-6.9c-88.2,0.1-176.3,0.1-264.5,0.1C28.1,677.9,24.3,677.9,19.5,677.9
	L19.5,677.9z M653.2,529c-0.2,78.1,60.7,156.5,156.5,158.6c88.7,1.9,159.8-67.9,162-156.8c2.1-85.5-67.2-158.2-153.8-161.3
	C730,366.3,653.5,436.1,653.2,529z M344,364.4c14.4-39.6,31.4-76.4,54.9-109.6C518.5,86,681.9,11.3,886.7,38.7
	c146.8,19.7,261.2,97,342.3,221c68.6,104.9,92.5,220.9,73.5,344.5c-18.9,123.4-77.2,226-173.5,305.7
	c-107,88.5-230.8,125.4-368.7,111.7c-110.9-11-208.1-55.1-288.1-132.7c-126.7-122.8-175.3-273-147.8-447
	c2.8-17.7-4.5-28.1-13.2-41.3c-1.1,3.7-1.9,5.9-2.4,8.3c-18.1,78.8-19.1,157.8-0.3,236.6c61.8,259.7,303.9,429.1,567.7,396.7
	c104-12.8,196.9-53,275-123c138.6-124.3,196.6-280.2,173-464.7c-13.6-106.2-58.5-199.6-132.4-277.2C1065.5,44.5,909.9-8.8,729,18.1
	C606.5,36.4,504.6,95.5,422.6,188.3c-39,44.2-69.2,94-91.1,148.7c-2,5-2.4,8.8,1.6,13C336.8,353.9,339.7,358.6,344,364.4L344,364.4z
	 M112.4,362.4c0,15.3,0,29.2,0,43.1c0,0.9-0.2,2.4,0.3,2.6c8.5,5,4.6,13.3,4.8,20c0.5,19.7,0.2,39.4,0.2,59c0,4.4,0,8.9,0,13.4h49.8
	c0-3.8,0-7.1,0-10.4c0-24.2,0.1-48.5-0.1-72.7c0-5.3,0.7-8.5,7.2-8.4c27.6,0.2,55.1,0.2,82.7,0c5.8,0,7.2,2.4,7.1,7.6
	c-0.2,17.9,0,35.7,0,53.6c0,9.9,0,19.8,0,30h17.7c6.7-36.5,13.2-71.9,19.3-107.2c0.6-3.3-0.3-8-2.4-10.5
	c-23.3-27.5-47-54.5-70.4-81.9c-3.9-4.5-7.3-2.3-11.2-0.9c-45.6,15.9-94.5-11.9-103-59.3c-1.9-10.7-0.3-22.1-0.3-34.2
	c-12.6,0-25,0-37.3,0c-29.2,0-46.3,17-46.3,46.2c0,120.2,0,240.5,0,360.7c0,3.2,0,6.4,0,9.7h260.2c-2.8-37.9-5.5-75.1-8.3-113.1
	c-2.4,0-5.7,0-9,0c-72.4,0-144.8,0.1-217.2-0.2c-4.8,0-9.6-2.4-14.4-3.7c2.5-8.6,9.6-4.4,14.5-4.6c13.1-0.6,26.3-0.2,39.5-0.2
	c0.2-3.1,0.2-4.6,0.3-6.1c3-30-4.8-60.2,4.5-90.3c3.9-12.6,0.7-27.5,0.7-41.9c-6.5-0.4-12.1-0.7-18.1-1v-49.8h95.4
	c-0.2,3.8-0.4,7.2-0.7,11.8H91.6v31.6h70.3c0.4,1.1,0.8,2.1,1.2,3.2c-2.3,1.2-4.5,3.5-6.8,3.5C142,362.5,127.8,362.3,112.4,362.4
	L112.4,362.4z M738.3,831.4c0,0.6,0,1.2,0,1.8c2.3,0.6,4.6,1.3,6.8,1.9c42.3,9.3,84.7,9.9,127.2,1.6
	c169.2-33,280.7-197.4,248.7-366.1c-32.1-169.1-194.8-281.3-363.8-251C557.2,255.4,443,470,525.1,655.3
	c5.6,12.7,15.9,16.5,28.1,22.7c-2.1-3.8-3.1-5.7-4-7.5c-32.9-62.1-43.6-128.1-30.6-197c29.7-157.5,176.4-262.6,335.1-241.3
	c128.4,17.3,232.2,118.3,253.5,246.7c22.5,135.5-48.1,267.2-173.5,323.1c-50.9,22.7-104.3,30.2-159.7,23.2c-2.5-0.3-5.3,1-7.8,2
	c-4.2,1.6-8.1,4.5-12.4,5.1C748.6,832.8,743.4,831.7,738.3,831.4L738.3,831.4z M365.6,512.2c-1.1,0.2-2.3,0.4-3.4,0.5
	c1.1,21.9,0.8,44,3.4,65.8c11.7,100,50.9,188,121.7,259.8c119,120.8,263.5,164.7,428.6,127.1c193.8-44.1,331.9-209.2,345.2-407
	c6.2-93.1-13.6-180.9-62.9-260.5c-82.3-133-202.5-206-358.3-218.2c-67.3-5.3-133.1,5.4-195.4,31.8
	C509.1,168.6,420.7,268.1,378.9,409c-2.1,7.1-1.5,12.9,3.8,18.6c0.8-2.5,1.8-4.7,2.3-7.1c47.4-185.8,207.9-320,398.8-331.7
	c116.2-7.2,220.2,26.5,310.1,100.7c157.5,130,204.1,353,112.7,535.9c-82.8,165.5-258.3,261.1-442.5,241c-83-9.1-157.9-38.8-223-91
	c-107.5-86.2-164-198.6-169.2-336.6C371.6,529.8,367.8,521,365.6,512.2L365.6,512.2z M493.5,641.4c-72.2-213.5,71.2-418.3,269-447.1
	C951,166.9,1126.7,298.7,1148,491.7c10.6,96.1-15.4,183.2-79.4,256c-90,102.4-204.3,135.6-337.4,109.6v12.2
	c55.3,13.1,110.3,13.1,164.9-0.5c191-47.6,305-240,255.4-430.4C1099.3,238,879.6,125.9,686.3,201.3C522.4,265.2,431,438.4,470.8,609
	C474,622.8,480.6,633.2,493.5,641.4L493.5,641.4z M368.3,405.5c1.2,0.1,2.4,0.2,3.5,0.2c0.8-2.6,1.6-5.1,2.4-7.7
	c19.3-64.5,50.9-122.3,95.9-172.3C550.7,136.1,651,84.7,771.3,73.5c82-7.7,160.6,5.9,235,40.9c207.1,97.4,310.1,331.2,242.7,549.6
	c-64.5,209.1-267.2,342.4-486.9,318.5c-131.2-14.2-236.8-76-316.1-181C378.5,712,350.2,610,356,498.2c0.3-6.4-1.9-13-2.9-19.5
	c-0.8,0.1-1.7,0.2-2.5,0.3c-0.3,1.4-0.7,2.9-0.9,4.3c-0.3,2.1-0.7,4.2-0.9,6.3c-5.8,72.1,4.3,141.9,30.7,209.2
	c77,196.3,276.6,315.6,486.6,291.5c80.5-9.3,154.8-36.2,218.8-85.5c156.5-120.6,219.1-279.8,181.3-473.9
	c-38.2-196.2-206.6-345-405.7-364.7C747.9,55,644,80.5,550.4,144.4c-89.1,60.9-149.7,143.4-182,246.5
	C367.1,395.4,368.3,400.6,368.3,405.5L368.3,405.5z M774.5,794.4c30,4.7,58.7,3.9,87.1-1.4c142.8-26.7,238.8-162.2,216.6-305.2
	c-23-148.3-162-249.1-309.8-224.7C567.5,296.2,475,534.9,601.2,694.7c12.7,16,7.3,13,26.3,8.5c-95.6-103.5-82.3-246.1-15.3-330.7
	c71-89.6,190.9-121.9,296.7-78.8c104.7,42.6,168.6,150.3,155.8,263.6c-6.3,55.5-28.5,104.4-67.2,144.8
	c-59.9,62.6-134,87.3-219.8,78.5C776.5,785.5,775.6,789.5,774.5,794.4L774.5,794.4z M390.6,448.5c1.1,0,2.2,0,3.4,0
	c0.6-2.3,1.4-4.6,1.9-7C443.4,215,660.7,68.9,889,109.8c236.7,42.4,392.2,277,339,511.5C1178.9,837.8,974.8,979.6,755,950
	c-90.8-12.2-169.5-50.2-235.7-113.2C447.9,769,405.8,685.6,390.7,588.4c-1.5-9.9-6.1-19.4-9.2-29.1c-1.7,1.4-1.9,2.3-1.9,3.2
	c0.1,2.1,0.2,4.2,0.4,6.3c6.7,69.3,28.6,133.3,65.7,192.2c102.6,163,304.7,239.1,489.4,184.1c221.1-65.8,352.2-290.5,300.5-515.1
	C1179.5,186,925.4,38.3,685.7,113.7c-157,49.4-254.9,157.9-296.2,317.1C388,436.3,390.1,442.6,390.6,448.5L390.6,448.5z
	 M592.9,697.8c-89.8-119.6-65.6-273.4,20.6-362c85.9-88.2,220.9-109.7,330.9-50.6c108,58,165.7,184.5,138.2,303.4
	c-14.3,62-45.7,113.7-95.1,153.9c-62.7,51.1-134.9,69.6-215.3,60c-1,4.4-1.8,8.3-2.8,12.7c63,9,121.9-0.4,177-29.7
	c114.1-60.7,172.4-180.2,151.4-308.2C1077,350.2,964,247.7,835.3,239.3c-62.5-4.1-120.6,9.6-174.5,42
	c-132.8,79.8-178.2,257.8-100,391.9C568.2,685.8,578.2,692.4,592.9,697.8L592.9,697.8z M403.1,474.3c0.9-0.1,1.9-0.2,2.8-0.2
	c0.3-1,0.7-2,0.9-3.1c6.6-48.8,21.2-95.1,45.5-137.9C525.2,205.2,635.2,133,781.8,120c91.8-8.2,178.2,13.3,254.4,65.6
	c138.2,95,199.5,227.6,182.4,394.4c-8.8,86.2-44.6,162.2-104.3,225.1c-107.1,112.8-238.9,156.5-390.5,122.6
	c-155-34.6-255.6-133-304.9-284c-2.7-8.2-8-15.4-12.1-23.1c-0.9,5-0.2,9.1,0.9,13.1c55.8,213.5,267.4,347.1,483.7,305.4
	c181-34.9,318.8-184.8,336.8-368c9.8-99.3-12.9-191.1-68-274.6C1058.4,142.4,862.3,71.7,687.2,130.1
	c-158.5,52.8-253.5,164-286.6,327.8C399.5,463,402.2,468.8,403.1,474.3L403.1,474.3z M333.9,437c-0.9,0.1-1.9,0.2-2.8,0.3
	c-10.3,53.6-11.6,107.7-3.6,161.6c15.8,106,60.4,198.4,136.7,273.7c121.1,119.5,267.4,167.3,434.7,137.5
	c163.7-29.2,282.7-122.6,356-271.8c47.2-96,58.8-197.9,38.6-302.6c-22.6-117.3-81-214.5-174.5-289.1
	C1005.1,55.9,874.8,22,731.4,45.4C601,66.7,496.4,133.1,417.2,239c-28.7,38.3-50.5,80.4-66.5,125.4c-1.4,4-4.2,8.6,2.7,11.2
	c1-2.8,2-5.3,2.9-7.8c33.5-93.6,89.9-170.4,170.1-229C627.5,65,740.8,35,865.4,47.9c70.9,7.3,137.8,28.5,197.5,67.3
	c170.1,110.4,247.9,267.6,229.2,469.9c-9.7,104.9-53.1,196.9-126,272.6c-125.8,130.7-280.2,180.8-457.4,142.1
	c-172.9-37.8-290-145.1-352.1-310.7c-29.2-77.8-34.4-158.5-21.1-240.5C336,444.9,334.5,440.9,333.9,437L333.9,437z M728.7,905.3
	c2.6,0.7,4.8,1.5,7.2,1.9c69.6,13.3,138.1,9.4,204.9-14.5c204.4-73,308.3-295.2,233.5-499.1c-65.7-179.1-258.9-285-444.2-242.2
	c-126.3,29.1-216.5,103.8-270.8,221.3c-22.2,48.1-32.9,99.3-32.5,152.3c0.1,8.9,4.2,17.8,6.5,26.8c0.9-0.2,1.8-0.5,2.7-0.8
	c0-2.4,0.1-4.8,0-7.2c-3-92.8,24.1-175.8,81.1-249.2c102.2-131.7,289-179.8,442-113.4c159.8,69.4,250.5,228.6,226,401.1
	c-16.6,116.6-77,206.3-177,268c-83.4,51.5-174.3,66.3-270.5,47.4C731.3,896.4,727.9,897.2,728.7,905.3L728.7,905.3z M730.9,888.1
	c14.6,2.3,28.7,5.4,43.1,6.7c105.3,9.5,198.8-19.3,279.4-88c114.6-97.8,157.4-261,106-402.2c-61.8-170.1-233.6-270.2-411.9-238.2
	c-112.7,20.2-197.7,81.9-255.3,180.5c-38.1,65.2-51.8,136.2-47.1,211.2c0.9,14.8,3.3,29.2,15.1,42.4
	c-19.5-116.1,4.9-219.7,81.9-307.6c77.3-88.2,176.4-129.3,293.3-122.3c190.9,11.3,338.7,171.9,335.5,362.8
	c-1.7,99.2-37.8,184.6-109.5,253c-93.1,88.8-204.7,116.9-330.7,92.5L730.9,888.1L730.9,888.1z M357.9,387.8c1,0.1,2.1,0.3,3.1,0.4
	c3.8-10.5,7.5-21,11.5-31.3c88.2-227.6,339.1-351,572.7-281.6c237.7,70.6,379.8,308.9,329,551.5
	c-56.4,268.9-333.7,433.5-596.9,354.3c-222.7-67-363.2-284.1-333.2-514.7c0.5-3.4-1.2-7.1-1.8-10.7c-9.5,44.7-10,89.1-4.1,133.4
	c12.6,95.2,50.4,179.2,113,252.2c125.7,146.9,335.9,203.1,517.9,138.9c205-72.2,335.5-271.7,319.9-485.1
	c-4.7-63.6-20.7-123.9-49.4-180.8C1148.4,133.1,955.4,29.8,754.8,54.1C653.2,66.4,564.5,107.7,489,176.9
	C429.1,231.8,386.3,298,359.9,374.7C358.5,378.8,358.5,383.4,357.9,387.8L357.9,387.8z M713.8,914.9c0.1,1.6,0.2,3.2,0.3,4.8
	c23,3.3,45.9,7.9,69.1,9.5c74.7,5.3,145.5-9.3,212.6-43c151.7-76,241.2-250.3,214.3-417.7c-12.8-79.5-44.5-150.3-99.4-209.2
	c-99.7-106.9-223-150.1-367.2-126.7c-109.1,17.7-195.6,74.7-259.9,164.6c-40.6,56.8-63.8,120.5-70.9,189.9
	c-0.7,6.6,2.5,13.5,3.8,20.4l2.6-0.7c0.9-10.2,1.4-20.5,2.9-30.7c10.3-73.3,37.5-139.8,85.4-196.3c94.3-111.2,214.7-158.7,359.5-141
	c85.4,10.5,159.4,47.3,220.2,107.8c90.8,90.3,129.6,200.2,116.1,327.7c-7.7,73.1-34.2,139.5-80.8,196.2
	c-102.6,124.6-234.3,171.6-393.2,142.9C724.3,912.6,718.9,914.4,713.8,914.9L713.8,914.9z M513.3,657.4c1-0.5,1.9-1,2.9-1.5
	c-21.6-49.7-29.2-101.6-24.9-155.1c4.3-54,21.8-104,51.7-149.3c29.7-45.1,68.3-80.7,115.8-106.5c123.7-67,274.4-46.6,376.7,50.7
	c100.2,95.4,127.6,246.9,68.1,371.9C1047.6,785,906.3,882,733,841.7c-2.6,5.7,0.4,7.2,5.5,8.3c49.2,11.1,98.3,11.2,147.6,0
	c173.7-39.6,291-213.8,247-397.8c-43-180-219.9-287-399.7-244.1C543,253.5,433.4,461.5,503.7,644.6
	C505.5,649.3,510,653.1,513.3,657.4z M600.8,717.9c-2.5-1.2-4.1-2-5.7-2.8c-26.7-13.5-53.7-26.5-80.1-40.5
	c-36-19.1-62.6-47.5-78.8-84.9c-15.2-34.9-29.4-70.2-44-105.4c-32.6-78.5-78.8-147.6-141.5-206.2c-3.9,3.5-8.1,7.2-12,10.6
	c19,20.9,38.4,40.6,55.8,61.8c43.7,53.5,71.5,115.4,92.2,180.7c11.7,36.7,25.5,72.4,48,104.2c39.2,55.5,98.7,79.5,159.2,103.6
	C596.3,731.8,598.4,725.3,600.8,717.9L600.8,717.9z M262.2,225.6c0.2-39.3-30.4-70.9-69.4-71.4c-38.9-0.6-71.2,31.4-71.5,70.5
	c-0.2,39.1,31.4,70.7,71,70.9C230.6,295.7,262,264.2,262.2,225.6L262.2,225.6z M633.4,712.4c-7.9,0.2-13.1,3.1-15.8,10.5
	c-3.9,10.5-8.4,20.7-12.3,31.2c-5.7,15.3-5,16.8,10.2,22.4c2.8,1.1,5.7,1.9,8.6,2.9c29.4,10.1,58.9,20,88.3,30.3
	c12.3,4.3,24.2,9.4,36.4,14c6.6,2.5,11.6,1.8,13.3-6.8c1.7-8.6,4.4-17,6.5-25.5c2-8-0.2-14-8.1-18c-35-17.8-69.8-36-104.9-53.6
	C648.6,716.5,640.8,714.9,633.4,712.4L633.4,712.4z M255.6,500.7v-84.7h-79.6v84.7H255.6z M115.8,84.6
	c-11.2-12.9-22.1-25.5-33.3-38.4C58.8,66.9,35.8,87,12.3,107.4c11.3,12.9,22.2,25.3,33.4,38.1C69.2,125.1,92,105.3,115.8,84.6
	L115.8,84.6z M359.9,253.2c-30.5,0-60.5-0.2-90.4,0.4c-2.9,0.1-6.2,5.2-8.4,8.6c-1.1,1.6-1,5.6,0.3,7c19.6,21.4,39.5,42.4,59,63.2
	C333.3,306.6,346.3,280.4,359.9,253.2L359.9,253.2z M692.9,912.9c3.5-7.7-0.8-8.9-5.7-11.1c-27.7-12.7-56.6-23.6-82.5-39.4
	c-73.1-44.5-125-107.8-157.9-186.8c-2.7-6.6-8.1-12-12.2-18c-0.9,0.7-1.9,1.5-2.8,2.2C479,785.1,565.7,869.5,692.9,912.9
	L692.9,912.9z M462.5,682.1c-1.1,0.8-2.2,1.6-3.3,2.4c25.8,58.4,64,107.5,114.1,147.2c36.5,28.9,76.8,50.7,121.3,64.4
	c4.3-10.2-2.9-10.4-8-12.3c-92.4-33.8-161.4-94.4-208.4-180.6C474,695.6,467.8,689.1,462.5,682.1L462.5,682.1z M698.7,860.3
	c4.2-12.1,4.1-12-6.4-16.2c-7.6-3-15.4-5.6-22.5-9.7c-23.4-13.3-48.2-24.9-69.1-41.3c-19.8-15.5-35-36.6-53.1-54.4
	c-6.6-6.5-15.7-10.5-23.6-15.6c-0.5,0.8-1,1.7-1.6,2.5C566.6,789.5,625.4,834.4,698.7,860.3L698.7,860.3z M492.6,705.1
	c-0.7,0.9-1.4,1.8-2.1,2.6c47.6,82.3,115.9,139.5,206.9,170.8c0.4-3.8,0.7-6.4,1-9.1c-1.5-0.7-2.6-1.2-3.7-1.6
	c-79.5-28.5-141.8-78.4-187.4-149.5C504,712.9,497.6,709.4,492.6,705.1L492.6,705.1z M121.4,91c-23.9,20.9-46.7,40.8-70,61.1
	c3.2,3.6,5.7,6.5,8.6,9.7c23.6-20.5,46.5-40.4,70-60.8C127,97.5,124.6,94.6,121.4,91z M710.2,843.2c0.5,0.1,1,0.1,1.5,0.2
	c-2.4,17.6-4.9,35.2-7.1,52.8c-0.4,3.1,1.2,6.4,1.8,9.6c3.4-2,8.8-3.3,9.8-6.2c8.6-23,7.7-47.3,7.8-71.4c0-1.8-5.7-4.6-8.8-4.8
	c-1.5-0.1-4.3,4.5-4.9,7.3C709.6,834.6,710.2,838.9,710.2,843.2L710.2,843.2z M144.3,161.9c-9.5-9.1-18.8-18.1-28.5-27.4
	c-4.1,3.6-8.5,7.5-13.5,11.9c10.3,9.8,19.9,18.8,29.3,27.8C135.5,170.4,139.8,166.3,144.3,161.9L144.3,161.9z M655.4,819.3
	c14.9,6.7,29.8,13.3,45.3,20.2C701.2,829.1,685.1,821.7,655.4,819.3z M586.1,767.3c2.5-10.6-7.8-20.9-23.8-22.4
	C570.9,753,578.4,760.1,586.1,767.3z"/>
<path class="st0" d="M653.2,529c0.3-92.8,76.8-162.7,164.7-159.5c86.6,3.1,156,75.8,153.8,161.3c-2.2,88.9-73.4,158.7-162,156.8
	C713.9,685.5,652.9,607,653.2,529L653.2,529z M811.8,544.1c8.1,0.1,15.8-7.2,16.2-15.3c0.4-8.3-6.8-15.5-15.5-15.6
	c-8.6-0.1-15.8,6.9-15.7,15.4C796.8,536.3,804.3,544,811.8,544.1z"/>
<path class="st1" d="M344,364.4c-4.3-5.8-7.2-10.5-10.8-14.4c-4-4.2-3.6-8-1.6-13c21.9-54.8,52-104.6,91.1-148.7
	C504.6,95.5,606.5,36.4,729,18.1c180.9-27,336.5,26.3,462.9,159.1c73.9,77.6,118.8,171,132.4,277.2c23.5,184.4-34.4,340.4-173,464.7
	c-78.1,70-171,110.3-275,123c-263.8,32.4-505.9-137-567.7-396.7c-18.8-78.8-17.7-157.7,0.3-236.6c0.5-2.4,1.3-4.6,2.4-8.3
	c8.8,13.2,16,23.6,13.2,41.3C296.9,616,345.6,766.1,472.2,888.9c80,77.6,177.3,121.7,288.1,132.7c137.9,13.7,261.7-23.2,368.7-111.7
	c96.2-79.7,154.5-182.3,173.5-305.7c19-123.6-4.9-239.5-73.5-344.5c-81-124-195.5-201.3-342.3-221C681.9,11.3,518.5,86,398.9,254.8
	C375.4,288,358.4,324.8,344,364.4L344,364.4z"/>
<path class="st0" d="M112.4,362.4c15.4,0,29.6,0.2,43.8-0.2c2.3,0,4.6-2.3,6.8-3.5c-0.4-1.1-0.8-2.1-1.2-3.2H91.6v-31.6h86.3
	c0.3-4.6,0.5-7.9,0.7-11.8H83.2v49.8c6,0.3,11.6,0.6,18.1,1c0,14.4,3.3,29.3-0.7,41.9c-9.3,30.1-1.5,60.3-4.5,90.3
	c-0.2,1.5-0.2,3-0.3,6.1c-13.2,0-26.4-0.4-39.5,0.2c-4.9,0.2-12-4-14.5,4.6c4.8,1.3,9.6,3.7,14.4,3.7c72.4,0.2,144.8,0.2,217.2,0.2
	c3.3,0,6.6,0,9,0c2.8,38,5.5,75.2,8.3,113.1H30.5c0-3.3,0-6.5,0-9.7c0-120.2,0-240.5,0-360.7c0-29.2,17-46.2,46.3-46.2
	c12.3,0,24.7,0,37.3,0c0,12.1-1.7,23.5,0.3,34.2c8.5,47.5,57.4,75.2,103,59.3c3.9-1.4,7.3-3.6,11.2,0.9
	c23.4,27.4,47.1,54.5,70.4,81.9c2.1,2.5,3,7.2,2.4,10.5c-6.1,35.4-12.7,70.7-19.3,107.2h-17.7c0-10.2,0-20.1,0-30
	c0-17.9-0.1-35.7,0-53.6c0-5.2-1.3-7.7-7.1-7.6c-27.6,0.2-55.1,0.3-82.7,0c-6.5-0.1-7.3,3.1-7.2,8.4c0.2,24.2,0.1,48.5,0.1,72.7
	c0,3.3,0,6.5,0,10.4h-49.8c0-4.5,0-9,0-13.4c0-19.7,0.3-39.4-0.2-59c-0.2-6.8,3.8-15-4.8-20c-0.5-0.3-0.3-1.7-0.3-2.6
	C112.4,391.6,112.4,377.7,112.4,362.4L112.4,362.4z M145.6,566c0.4-25.5-20.2-46.5-45.5-46.7c-25.2-0.1-45.8,19.8-46.3,45
	c-0.6,25.9,19.1,46.9,44.6,47.4C124.7,612.2,145.2,592.3,145.6,566L145.6,566z M70.4,219.6c-14.2-0.2-26.2,11.3-26.6,25.5
	c-0.3,13.9,11.7,26.1,25.8,26.2c14.1,0.1,26-11.7,26.1-26C95.9,231.7,84.2,219.8,70.4,219.6L70.4,219.6z M152.4,340.6
	C152.4,340.6,152.4,340.6,152.4,340.6c-7.5,0-15.1-0.3-22.6,0.2c-2,0.1-4,2.5-5.9,3.9c1.9,1.5,3.8,4.3,5.8,4.4
	c14.5,0.4,29,0.3,43.4,0c2,0,4-2.8,6-4.2c-2.2-1.4-4.4-3.8-6.7-4C165.7,340.2,159,340.6,152.4,340.6L152.4,340.6z M182.6,333.3
	c0,0.8,0,1.6,0,2.4h59.6c0-0.8,0-1.6,0-2.4H182.6z"/>
<path class="st0" d="M738.3,831.4c5.1,0.3,10.3,1.5,15.3,0.7c4.3-0.6,8.2-3.5,12.4-5.1c2.5-1,5.3-2.3,7.8-2
	c55.4,7,108.7-0.5,159.7-23.2c125.4-55.8,196-187.5,173.5-323.1C1085.8,350.4,982,249.4,853.6,232.1
	c-158.7-21.4-305.4,83.8-335.1,241.3c-13,68.9-2.3,134.9,30.6,197c1,1.8,2,3.7,4,7.5c-12.2-6.2-22.5-10-28.1-22.7
	C443,470,557.2,255.4,757.2,219.5c169-30.4,331.8,81.9,363.8,251c32,168.8-79.5,333.1-248.7,366.1c-42.4,8.3-84.9,7.7-127.2-1.6
	c-2.3-0.5-4.6-1.2-6.8-1.9C738.4,832.5,738.4,832,738.3,831.4L738.3,831.4z"/>
<path class="st0" d="M365.6,512.2c2.2,8.8,6,17.6,6.3,26.5c5.2,138,61.7,250.4,169.2,336.6c65.1,52.2,139.9,81.9,223,91
	c184.2,20.1,359.8-75.4,442.5-241c91.4-182.9,44.9-405.9-112.7-535.9C1004,115.4,900.1,81.7,783.8,88.8
	C593,100.6,432.5,234.7,385,420.5c-0.6,2.3-1.5,4.5-2.3,7.1c-5.3-5.7-5.9-11.5-3.8-18.6c41.8-140.9,130.2-240.3,265.5-297.5
	c62.4-26.4,128.1-37.1,195.4-31.8c155.9,12.2,276,85.2,358.3,218.2c49.3,79.6,69.1,167.5,62.9,260.5
	c-13.3,197.8-151.3,362.9-345.2,407c-165.1,37.5-309.5-6.3-428.6-127.1c-70.8-71.8-110-159.8-121.7-259.8
	c-2.5-21.8-2.3-43.8-3.4-65.8C363.3,512.6,364.4,512.4,365.6,512.2L365.6,512.2z"/>
<path class="st0" d="M493.5,641.4c-12.9-8.3-19.5-18.6-22.8-32.5C431,438.4,522.4,265.2,686.3,201.3
	c193.4-75.4,413.1,36.7,465.3,237.4c49.6,190.5-64.4,382.8-255.4,430.4c-54.6,13.6-109.6,13.6-164.9,0.5v-12.2
	c133.1,26,247.4-7.2,337.4-109.6c64-72.8,89.9-159.9,79.4-256c-21.2-193-196.9-324.9-385.4-297.4C564.7,223.1,421.3,428,493.5,641.4
	L493.5,641.4z"/>
<path class="st0" d="M368.3,405.5c0-4.9-1.2-10.1,0.2-14.6c32.3-103,92.9-185.6,182-246.5C644,80.5,747.9,55,860.7,66.1
	c199.1,19.7,367.5,168.5,405.7,364.7c37.8,194.1-24.9,353.3-181.3,473.9c-64,49.3-138.3,76.3-218.8,85.5
	c-210,24.2-409.7-95.2-486.6-291.5c-26.4-67.3-36.5-137.1-30.7-209.2c0.2-2.1,0.5-4.2,0.9-6.3c0.2-1.5,0.6-2.9,0.9-4.3
	c0.8-0.1,1.7-0.2,2.5-0.3c1,6.5,3.2,13.1,2.9,19.5C350.2,610,378.5,712,446.1,801.5c79.3,105,184.9,166.8,316,181
	c219.7,23.9,422.3-109.4,486.9-318.5c67.4-218.4-35.6-452.2-242.7-549.6c-74.5-35-153-48.6-235-40.9
	C651,84.7,550.7,136.1,470.1,225.6c-45,50-76.6,107.8-95.9,172.3c-0.8,2.6-1.6,5.2-2.4,7.7C370.6,405.6,369.5,405.5,368.3,405.5
	L368.3,405.5z"/>
<path class="st0" d="M774.5,794.4c1.1-4.9,2.1-9,3.2-13.9c85.8,8.8,159.9-15.9,219.8-78.5c38.7-40.4,60.9-89.2,67.2-144.8
	c12.8-113.3-51.2-220.9-155.8-263.6C803,250.6,683,282.9,612.1,372.5c-67,84.6-80.3,227.2,15.3,330.7c-19,4.5-13.6,7.5-26.3-8.5
	C475,534.9,567.5,296.2,768.4,263.1c147.8-24.4,286.7,76.4,309.8,224.7c22.2,143.1-73.8,278.6-216.6,305.2
	C833.2,798.3,804.5,799.1,774.5,794.4L774.5,794.4z"/>
<path class="st2" d="M390.6,448.5c-0.5-5.9-2.6-12.3-1.2-17.7c41.3-159.2,139.2-267.7,296.2-317.1C925.4,38.3,1179.4,186,1235.6,430
	c51.7,224.6-79.4,449.3-300.5,515.1c-184.7,55-386.8-21.1-489.4-184.1c-37.1-58.9-59-122.9-65.7-192.2c-0.2-2.1-0.4-4.2-0.4-6.3
	c0-0.9,0.2-1.8,1.9-3.2c3.2,9.7,7.7,19.2,9.2,29.1c15.2,97.2,57.2,180.5,128.6,248.4c66.2,63,144.9,101,235.7,113.2
	c219.9,29.6,423.9-112.2,473-328.7c53.2-234.5-102.2-469.1-339-511.5C660.7,68.9,443.4,215.1,395.8,441.6c-0.5,2.4-1.2,4.6-1.9,7
	C392.8,448.5,391.7,448.6,390.6,448.5L390.6,448.5z"/>
<path class="st0" d="M592.9,697.8c-14.7-5.5-24.7-12.1-32.1-24.7c-78.2-134-32.8-312.1,100-391.9c53.9-32.4,112-46.1,174.5-42
	c128.7,8.4,241.7,110.8,262.5,238c21,128-37.3,247.5-151.4,308.2c-55,29.3-114,38.7-177,29.7c1-4.4,1.8-8.3,2.8-12.7
	c80.4,9.6,152.6-9,215.3-60c49.3-40.2,80.7-91.9,95.1-153.9c27.5-118.9-30.2-245.4-138.2-303.4c-110-59.1-245-37.6-330.9,50.6
	C527.3,424.4,503.1,578.2,592.9,697.8L592.9,697.8z"/>
<path class="st0" d="M403.1,474.3c-0.9-5.5-3.6-11.4-2.5-16.5c33.1-163.7,128.2-274.9,286.6-327.8
	c175.2-58.4,371.3,12.3,473.1,166.5c55.1,83.5,77.8,175.3,68,274.6c-18.1,183.1-155.8,333.1-336.8,368
	c-216.4,41.7-428-91.9-483.8-305.4c-1-4-1.8-8.1-0.9-13.1c4.1,7.7,9.5,14.9,12.1,23.1c49.2,151,149.9,249.4,304.9,284
	c151.6,33.8,283.4-9.8,390.5-122.6c59.7-62.9,95.5-138.8,104.3-225.1c17.1-166.8-44.1-299.4-182.4-394.4
	C960,133.3,873.6,111.8,781.8,120c-146.6,13-256.6,85.3-329.5,213.1c-24.4,42.8-38.9,89.1-45.5,137.9c-0.1,1.1-0.6,2.1-0.9,3.1
	C405,474.2,404,474.3,403.1,474.3L403.1,474.3z"/>
<path class="st2" d="M333.9,437c0.5,3.9,2.1,7.9,1.5,11.5c-13.3,82-8.1,162.8,21.1,240.5C418.7,854.6,535.7,962,708.6,999.8
	c177.3,38.7,331.6-11.4,457.4-142.1c72.9-75.7,116.3-167.8,126-272.6c18.8-202.2-59.1-359.4-229.2-469.9
	c-59.7-38.8-126.6-59.9-197.5-67.3C740.8,35,627.5,65,526.4,138.8c-80.2,58.6-136.6,135.5-170.1,229c-0.9,2.5-1.9,5-2.9,7.8
	c-6.8-2.6-4.1-7.2-2.7-11.2c16.1-45,37.9-87.1,66.5-125.4C496.4,133.1,601,66.8,731.4,45.4C874.8,22,1005.1,55.9,1119,146.7
	c93.5,74.6,151.9,171.8,174.5,289.1c20.2,104.7,8.6,206.6-38.6,302.6c-73.3,149.2-192.3,242.6-356,271.8
	c-167.2,29.8-313.6-18-434.7-137.5c-76.3-75.3-120.9-167.7-136.7-273.7c-8-54-6.7-108,3.6-161.6C332,437.2,333,437.1,333.9,437
	L333.9,437z"/>
<path class="st2" d="M728.7,905.3c-0.9-8.1,2.6-8.8,8.7-7.7c96.2,18.9,187.1,4.1,270.5-47.4c100-61.7,160.4-151.4,177-268
	c24.5-172.5-66.2-331.7-226-401.1c-153-66.4-339.8-18.4-442,113.4c-57,73.4-84,156.4-81.1,249.2c0.1,2.4,0,4.8,0,7.2
	c-0.9,0.2-1.8,0.5-2.7,0.8c-2.3-8.9-6.5-17.8-6.5-26.8c-0.4-53.1,10.3-104.2,32.5-152.3C513.5,255.1,603.8,180.4,730,151.3
	c185.4-42.8,378.5,63.1,444.2,242.3c74.8,203.9-29,426.1-233.5,499.1c-66.8,23.9-135.3,27.8-204.9,14.5
	C733.6,906.7,731.3,906,728.7,905.3L728.7,905.3z"/>
<path class="st2" d="M730.9,888.1v-9.2c126,24.4,237.6-3.7,330.7-92.5c71.7-68.3,107.8-153.8,109.5-253
	c3.2-190.9-144.6-351.5-335.5-362.8c-116.9-6.9-216.1,34.1-293.3,122.3c-77,87.9-101.4,191.5-81.9,307.6
	c-11.8-13.1-14.2-27.5-15.1-42.4c-4.7-74.9,9-146,47.1-211.2c57.6-98.6,142.6-160.3,255.3-180.5c178.3-32,350,68.1,411.9,238.2
	c51.3,141.2,8.5,304.4-106,402.2c-80.6,68.8-174.1,97.5-279.4,88C759.6,893.6,745.5,890.4,730.9,888.1L730.9,888.1z"/>
<path class="st0" d="M357.9,387.8c0.6-4.4,0.6-8.9,2-13c26.4-76.8,69.2-143,129.1-197.9c75.5-69.2,164.3-110.5,265.8-122.8
	c200.6-24.2,393.6,79,484.9,260.4c28.7,56.9,44.7,117.2,49.4,180.8c15.6,213.3-114.9,412.8-319.9,485.1
	c-182.1,64.2-392.2,7.9-517.9-138.9c-62.5-73-100.4-157-113-252.2c-5.9-44.3-5.4-88.7,4.1-133.5c0.7,3.6,2.3,7.2,1.8,10.7
	C314.1,697,454.6,914.1,677.3,981.1c263.2,79.1,540.5-85.5,596.9-354.3c50.9-242.6-91.3-481-329-551.5
	c-233.6-69.4-484.6,54-572.7,281.6c-4,10.4-7.7,20.9-11.5,31.3C360,388,358.9,387.9,357.9,387.8L357.9,387.8z"/>
<path class="st2" d="M713.8,914.9c5.1-0.5,10.5-2.3,15.3-1.4c158.9,28.8,290.7-18.2,393.2-142.9c46.6-56.7,73.1-123.1,80.8-196.2
	c13.5-127.5-25.3-237.4-116.1-327.7c-60.8-60.6-134.8-97.4-220.2-107.8c-144.8-17.8-265.2,29.8-359.5,141
	c-47.9,56.5-75,123-85.4,196.3c-1.4,10.2-1.9,20.5-2.9,30.7l-2.6,0.7c-1.4-6.8-4.5-13.8-3.8-20.4c7-69.4,30.2-133.1,70.9-189.9
	c64.3-89.9,150.8-146.9,259.9-164.6c144.2-23.4,267.5,19.8,367.2,126.7c54.9,58.9,86.6,129.7,99.4,209.2
	c26.9,167.4-62.7,341.6-214.3,417.7c-67.1,33.7-137.9,48.2-212.6,43c-23.1-1.6-46-6.3-69.1-9.5C714,918.2,713.9,916.6,713.8,914.9
	L713.8,914.9z"/>
<path class="st0" d="M513.3,657.4c-3.2-4.2-7.7-8-9.6-12.8c-70.3-183,39.3-391,229.8-436.5c179.8-42.9,356.6,64.1,399.7,244.1
	c44,184-73.3,358.2-247,397.8c-49.2,11.2-98.4,11.2-147.6,0c-5-1.1-8-2.6-5.5-8.3c173.3,40.3,314.6-56.7,370.5-174.2
	c59.4-125,32.1-276.5-68.1-371.9C933.1,198.4,782.4,178,658.7,245c-47.5,25.7-86.1,61.4-115.8,106.5
	c-29.9,45.4-47.4,95.3-51.7,149.3c-4.3,53.4,3.4,105.4,24.9,155.1C515.2,656.4,514.2,656.9,513.3,657.4z"/>
<path class="st0" d="M600.8,717.9c-2.4,7.3-4.5,13.9-6.8,21.2c-60.5-24.1-120-48-159.2-103.6c-22.4-31.8-36.3-67.5-48-104.2
	C366,465.9,338.3,404,294.6,350.5c-17.4-21.3-36.8-40.9-55.8-61.8c3.8-3.4,8-7.1,12-10.6c62.6,58.6,108.9,127.7,141.5,206.2
	c14.6,35.2,28.8,70.5,44,105.4c16.3,37.3,42.8,65.8,78.8,84.9c26.4,14,53.4,27,80.1,40.5C596.7,715.9,598.3,716.7,600.8,717.9
	L600.8,717.9z"/>
<path class="st1" d="M262.2,225.6c-0.2,38.6-31.6,70.1-69.8,69.9c-39.5-0.1-71.2-31.7-71-70.9c0.2-39.2,32.5-71.1,71.5-70.5
	C231.8,154.7,262.4,186.3,262.2,225.6L262.2,225.6z M192,259c19,0,33.8-14.8,33.9-34.1c0.1-18.7-15.4-34.3-34-34.2
	C173.1,190.8,158,206,158,225C158,244,173,259,192,259z"/>
<path class="st1" d="M633.4,712.4c7.4,2.5,15.2,4.2,22.1,7.6c35.1,17.6,69.9,35.8,104.9,53.6c7.8,4,10,10,8.1,18
	c-2.1,8.5-4.8,16.9-6.5,25.5c-1.7,8.5-6.7,9.2-13.3,6.8c-12.2-4.5-24.1-9.7-36.4-14c-29.4-10.3-58.8-20.2-88.3-30.3
	c-2.9-1-5.8-1.8-8.6-2.9c-15.2-5.7-16-7.1-10.2-22.4c3.9-10.5,8.4-20.7,12.3-31.2C620.3,715.5,625.5,712.6,633.4,712.4L633.4,712.4z
	 M735.7,769.8c-10.8,0.2-19.5,9-19.5,19.7c0,10.9,9.5,20.2,20.4,19.9c10.8-0.3,19.3-9,19.3-19.9
	C755.9,778.2,747.1,769.6,735.7,769.8L735.7,769.8z"/>
<path class="st0" d="M255.6,500.7H176v-84.7h79.6V500.7z"/>
<path class="st0" d="M115.8,84.6c-23.8,20.7-46.5,40.5-70,60.9c-11.2-12.8-22.1-25.2-33.4-38.1C35.8,87,58.8,66.9,82.5,46.2
	C93.7,59.1,104.5,71.7,115.8,84.6L115.8,84.6z"/>
<path class="st1" d="M359.9,253.2c-13.6,27.2-26.6,53.4-39.5,79.2c-19.5-20.8-39.4-41.9-59-63.2c-1.2-1.4-1.3-5.3-0.3-7
	c2.2-3.4,5.5-8.5,8.4-8.6C299.5,252.9,329.4,253.2,359.9,253.2L359.9,253.2z"/>
<path class="st0" d="M692.9,912.9c-127.2-43.5-213.9-127.8-261-253c0.9-0.7,1.9-1.5,2.8-2.2c4.1,6,9.5,11.5,12.2,18
	c32.9,79,84.8,142.3,157.9,186.8c25.9,15.8,54.8,26.7,82.5,39.4C692.1,904,696.4,905.2,692.9,912.9L692.9,912.9z"/>
<path class="st0" d="M462.5,682.1c5.3,7,11.6,13.5,15.7,21.2c47,86.2,116.1,146.8,208.4,180.6c5.1,1.8,12.3,2.1,8,12.3
	c-44.6-13.8-84.8-35.5-121.3-64.4C523.2,792,485,742.9,459.2,684.5C460.3,683.7,461.4,682.9,462.5,682.1L462.5,682.1z"/>
<path class="st0" d="M698.7,860.3c-73.3-26-132.1-70.8-176.3-134.6c0.5-0.8,1-1.7,1.6-2.5c7.9,5.1,17,9.1,23.6,15.6
	c18.1,17.8,33.3,38.9,53.1,54.4c21,16.4,45.8,28.1,69.1,41.3c7.1,4,14.9,6.6,22.5,9.7C702.8,848.3,702.9,848.2,698.7,860.3
	L698.7,860.3z"/>
<path class="st0" d="M492.6,705.1c5,4.4,11.4,7.8,14.8,13.2c45.6,71.1,107.9,121,187.4,149.5c1.1,0.4,2.2,0.9,3.7,1.6
	c-0.3,2.7-0.6,5.3-1,9.1c-91-31.3-159.4-88.4-206.9-170.8C491.2,706.9,491.9,706,492.6,705.1L492.6,705.1z"/>
<path class="st1" d="M121.4,91c3.1,3.6,5.6,6.5,8.6,10c-23.5,20.4-46.4,40.4-70,60.8c-2.8-3.2-5.4-6.1-8.6-9.7
	C74.7,131.9,97.5,111.9,121.4,91z"/>
<path class="st0" d="M710.2,843.2c0-4.2-0.6-8.6,0.2-12.6c0.6-2.8,3.4-7.4,4.9-7.3c3.2,0.3,8.9,3.1,8.8,4.8
	c-0.1,24,0.7,48.3-7.8,71.4c-1.1,2.9-6.4,4.2-9.8,6.2c-0.7-3.2-2.2-6.5-1.8-9.6c2.1-17.6,4.7-35.2,7.1-52.8
	C711.3,843.3,710.7,843.2,710.2,843.2L710.2,843.2z"/>
<path class="st1" d="M144.3,161.9c-4.6,4.4-8.9,8.6-12.7,12.2c-9.4-8.9-19-18-29.3-27.8c5-4.4,9.4-8.3,13.5-11.9
	C125.5,143.8,134.8,152.7,144.3,161.9L144.3,161.9z"/>
<path class="st0" d="M655.4,819.3c29.7,2.4,45.7,9.8,45.3,20.2C685.3,832.6,670.4,826,655.4,819.3z"/>
<path class="st0" d="M586.1,767.3c-7.7-7.2-15.2-14.3-23.8-22.4C578.2,746.4,588.5,756.7,586.1,767.3z"/>
<path d="M145.6,566c-0.4,26.3-20.9,46.1-47.3,45.6c-25.5-0.5-45.2-21.4-44.6-47.4c0.6-25.2,21.1-45.1,46.3-45
	C125.4,519.5,146,540.6,145.6,566L145.6,566z M99.3,534.9c-17,0.1-30.6,13.7-30.6,30.5c0,17.1,14.1,31.5,31,31.5
	c17,0,31.1-14.4,31.1-31.4C130.6,548.2,116.8,534.7,99.3,534.9L99.3,534.9z"/>
<path d="M70.4,219.6c13.7,0.2,25.4,12.1,25.3,25.8c-0.1,14.3-12,26.1-26.1,26c-14.2-0.1-26.2-12.4-25.8-26.2
	C44.2,230.9,56.3,219.3,70.4,219.6L70.4,219.6z M83,245c-0.2-7.1-6.6-13-13.8-12.6c-6.7,0.4-12.6,6.5-12.6,13.1
	c0,6.9,6.7,13.4,13.5,13.2C77.2,258.5,83.2,252.1,83,245L83,245z"/>
<path d="M152.4,340.6c6.6,0,13.3-0.4,19.9,0.2c2.3,0.2,4.5,2.6,6.7,4c-2,1.5-3.9,4.2-6,4.2c-14.5,0.4-29,0.4-43.4,0
	c-2,0-3.8-2.9-5.8-4.4c2-1.4,3.9-3.8,5.9-3.9C137.3,340.3,144.8,340.6,152.4,340.6C152.4,340.6,152.4,340.6,152.4,340.6L152.4,340.6
	z"/>
<path d="M182.6,333.3h59.6c0,0.8,0,1.6,0,2.4h-59.6C182.6,334.8,182.6,334.1,182.6,333.3z"/>
<path class="st3" d="M192,259c-18.9,0-33.9-15-33.9-34c0-18.9,15.1-34.2,33.9-34.3c18.6-0.1,34.1,15.5,34,34.2
	C225.7,244.1,211,258.9,192,259z M172.3,222c-0.5,10.6,7.9,19.8,18.6,20.5c10.6,0.7,20.8-8.8,20.9-19.4c0.2-10.4-8.8-19.7-19.3-20.1
	C182,202.6,172.8,211.3,172.3,222L172.3,222z"/>
<path d="M735.7,769.8c11.4-0.2,20.2,8.5,20.2,19.8c0,10.9-8.5,19.6-19.3,19.9c-10.9,0.3-20.4-9-20.4-19.9
	C716.2,778.8,724.9,770,735.7,769.8L735.7,769.8z M749.8,789.2c-0.2-7.5-6.9-13.8-14.3-13.4c-7.6,0.4-13.4,6.9-13,14.5
	c0.4,7.7,6.6,13,14.6,12.6C744.5,802.5,750.1,796.4,749.8,789.2L749.8,789.2z"/>
<path class="st1" d="M99.3,534.9c17.5-0.1,31.4,13.4,31.4,30.6c0,17-14.1,31.4-31.1,31.4c-16.8,0-31-14.4-31-31.5
	C68.7,548.5,82.2,535,99.3,534.9L99.3,534.9z M99.4,547.8c-10,0.1-17.8,7.9-17.8,17.8c0,9.8,8.1,18,17.8,18.1
	c10,0.1,18.5-8.6,18.2-18.6C117.5,555.2,109.6,547.7,99.4,547.8L99.4,547.8z"/>
<path class="st1" d="M83,245c0.2,7.1-5.8,13.5-12.9,13.7c-6.8,0.2-13.4-6.3-13.5-13.2c0-6.6,5.8-12.7,12.6-13.1
	C76.5,232,82.9,237.9,83,245z"/>
<path class="st3" d="M172.3,222c0.5-10.7,9.7-19.4,20.2-19c10.5,0.4,19.5,9.8,19.3,20.1c-0.2,10.6-10.3,20-20.9,19.4
	C180.2,241.9,171.9,232.6,172.3,222L172.3,222z"/>
<path class="st0" d="M749.8,789.2c0.2,7.3-5.3,13.3-12.7,13.7c-8.1,0.4-14.2-4.8-14.6-12.6c-0.4-7.6,5.5-14.1,13-14.5
	C742.9,775.4,749.6,781.7,749.8,789.2L749.8,789.2z"/>
<path d="M99.4,547.8c10.1-0.1,18,7.4,18.3,17.3c0.3,10-8.2,18.7-18.2,18.6c-9.7-0.1-17.8-8.2-17.8-18.1
	C81.6,555.7,89.4,547.9,99.4,547.8L99.4,547.8z M112.3,565.8c0.1-6.7-5.9-12.6-12.7-12.5c-6.9,0.1-13,6-12.4,12.7
	c0.6,7.2,4.7,11.6,12.2,12C106.3,578.3,112.2,572.7,112.3,565.8L112.3,565.8z"/>
<path class="st1" d="M112.3,565.8c-0.1,6.9-5.9,12.5-13,12.1c-7.5-0.4-11.6-4.7-12.2-12c-0.5-6.8,5.5-12.6,12.4-12.7
	C106.4,553.2,112.3,559.1,112.3,565.8L112.3,565.8z"/>
</svg>
